<?xml version="1.0" encoding="UTF-8"?>
<!DOCTYPE svg PUBLIC "-//W3C//DTD SVG 1.1//EN" "http://www.w3.org/Graphics/SVG/1.1/DTD/svg11.dtd">
<!-- Creator: CorelDRAW X7 -->
<svg xmlns="http://www.w3.org/2000/svg" xml:space="preserve" width="9.9976mm" height="10mm" version="1.1" style="shape-rendering:geometricPrecision; text-rendering:geometricPrecision; image-rendering:optimizeQuality; fill-rule:evenodd; clip-rule:evenodd"
viewBox="0 0 340 340"
 xmlns:xlink="http://www.w3.org/1999/xlink">
 <defs>
  <style type="text/css">
   <![CDATA[
    .fil0 {fill:black}
   ]]>
  </style>
 </defs>
 <g id="Warstwa_x0020_1">
  <metadata id="CorelCorpID_0Corel-Layer"/>
  <g id="_2020437462640">
   <path class="fil0" d="M11 291c24,13 37,15 66,20 55,10 133,9 186,0 27,-4 43,-8 66,-20 0,8 -2,10 -10,15 -21,11 -54,16 -79,19l-70 4 -47 -2c-7,-1 -14,-1 -23,-2 -21,-3 -41,-5 -62,-12 -6,-2 -20,-7 -25,-12 -2,-3 -2,-5 -2,-10zm252 9c2,-4 7,-11 8,-15 20,0 29,-5 40,-17 2,-2 3,-3 4,-6 4,3 16,8 13,15 -2,4 -13,9 -18,11 -8,3 -15,5 -23,7 -8,2 -16,3 -24,5zm-224 -9c-5,0 -23,-8 -26,-13 -4,-6 1,-9 5,-12 3,-2 10,-5 13,-6l12 12c-2,9 -2,12 -4,19zm158 -25l0 5c0,12 12,25 28,25l0 -11c-16,-1 -22,-18 -12,-28 3,-3 7,-5 12,-5 3,0 5,9 10,14 1,1 1,1 2,2l4 5c5,4 11,8 18,10 -1,7 -9,15 -14,18 -5,3 -8,2 -14,3 -5,1 -10,1 -15,1 -7,1 -16,-7 -20,-12 -15,-15 -13,-46 13,-59 3,-2 10,-4 16,-4l0 11c-16,0 -28,13 -28,25zm39 -30c0,-5 2,-12 3,-16 14,-30 55,-30 70,0 14,31 -19,65 -51,50 -13,-6 -22,-20 -22,-34zm-9 -17c-22,0 -36,8 -46,27 -5,8 -6,16 -6,26 0,14 10,28 17,34 -7,0 -11,1 -17,1 -46,0 -88,-4 -125,-12 0,-1 2,-12 2,-13 4,1 9,8 12,10 9,-5 17,-19 20,-31 2,-9 1,-3 15,-9 18,-8 31,-22 35,-42 2,-9 7,-2 25,-13 8,-5 3,-5 13,-5 13,0 23,2 34,4 7,2 21,7 27,12 -1,3 -5,7 -6,11zm-163 58l-7 -8c0,-2 2,-4 4,-7 1,-3 1,-5 2,-9 7,-25 24,-15 40,-30 15,-15 5,-33 29,-39 3,-1 6,-1 9,-3 4,-1 5,-3 8,-4l7 8c-2,1 -2,1 -3,2l-12 6c-13,4 -15,2 -18,16 -1,3 -2,6 -3,8 -1,2 -3,6 -4,8 -1,1 -2,1 -3,3 -14,17 -27,14 -33,18 -8,5 -5,10 -11,23l-5 8zm-15 -16c-2,-1 -9,-7 -9,-8 0,-6 4,-14 6,-17 5,-10 14,-18 24,-22 7,-3 12,-2 17,-7 7,-7 0,-11 15,-30 3,-4 9,-8 13,-10 4,-2 12,-6 17,-6 1,0 8,7 8,8 -10,6 -20,3 -30,15 -11,14 -6,29 -22,36 -2,1 -6,2 -9,2 -11,3 -21,11 -25,21 -1,3 -1,6 -2,10 -1,3 -2,5 -3,8zm126 -179l0 -65c0,-3 3,-6 6,-6 7,0 5,11 5,19 0,8 -1,42 1,47 6,14 25,14 31,1 2,-6 1,-39 1,-48 0,-7 -2,-19 6,-19 7,0 5,11 5,19 0,8 -1,42 1,47 6,14 25,14 31,1 2,-6 1,-39 1,-48 0,-7 -2,-19 5,-19 3,0 6,3 6,6l0 65c0,23 -18,20 -28,29 -14,13 -10,28 -10,47 0,12 0,25 0,38 -4,-2 -18,-9 -22,-9l0 -53c0,-14 -10,-26 -24,-30 -9,-3 -15,-10 -15,-22zm-109 -21c0,-6 1,-14 3,-19 6,-23 29,-40 52,-26 9,5 16,15 18,25 7,24 2,45 -15,62 -4,4 -9,11 -9,20 0,11 0,21 0,31 -5,1 -13,7 -17,11 -2,1 -3,3 -5,4 0,-11 0,-22 0,-33 0,-15 1,-19 -5,-29 -6,-8 -15,-12 -20,-31 -1,-4 -2,-11 -2,-15zm-11 -5c0,25 4,38 21,54 4,4 6,10 6,17l0 60c0,3 -1,6 -2,8 -1,5 -1,5 -5,6 -6,1 -10,3 -15,5 -27,14 -29,40 -31,42 -1,1 -6,3 -8,3 -6,3 -9,5 -14,9 0,1 -1,1 -1,1l0 1c-1,1 -2,2 -3,3 -2,2 -3,4 -3,8l0 24c0,24 67,35 86,38 44,5 88,6 132,3 12,0 46,-5 56,-7 16,-3 41,-9 55,-18 2,-2 4,-4 6,-6 2,-2 5,-6 5,-9l0 -25c0,-9 -14,-19 -20,-20 3,-12 3,-8 3,-21 0,-11 -7,-24 -14,-31l-13 -10c-15,-8 -35,-6 -50,4 0,-13 0,-25 0,-37 0,-16 -3,-36 14,-42 6,-2 7,-3 12,-6 6,-4 13,-14 13,-24l0 -71c0,-15 -24,-22 -32,-5 -2,6 -1,39 -1,48 0,7 2,19 -6,19 -7,0 -5,-11 -5,-19 0,-8 1,-42 -1,-47 -6,-14 -25,-15 -31,-1 -2,6 -1,39 -1,48 0,7 2,19 -5,19 -8,0 -6,-11 -6,-19 0,-8 1,-42 -1,-47 -7,-18 -32,-12 -32,4l0 71c0,13 10,25 22,29 17,5 17,13 17,34 0,12 0,23 0,35 -13,-1 -10,-3 -31,-3 -6,0 -4,-1 -12,-8 -4,-4 -24,-25 -27,-27 -4,3 0,1 -7,5 0,-8 -1,-22 0,-28 2,-10 6,-12 11,-18 2,-2 5,-5 7,-8 2,-3 3,-6 4,-9 12,-29 3,-67 -21,-82 -15,-8 -30,-8 -45,0 -10,6 -18,17 -23,28 -2,6 -4,14 -4,22z"/>
   <path class="fil0" d="M257 236c0,-14 18,-22 28,-12 15,15 -8,38 -23,23 -2,-2 -5,-7 -5,-11zm-11 -2l0 4c0,12 13,25 26,25l4 0c13,0 25,-13 25,-25l0 -4c0,-13 -12,-26 -25,-26l-4 0c-13,0 -26,13 -26,26z"/>
   <polygon class="fil0" points="142,219 153,219 153,208 142,208 "/>
   <polygon class="fil0" points="170,225 181,225 181,214 170,214 "/>
   <polygon class="fil0" points="153,258 164,258 164,247 153,247 "/>
   <polygon class="fil0" points="120,263 131,263 131,252 120,252 "/>
   <polygon class="fil0" points="99,285 110,285 110,274 99,274 "/>
   <polygon class="fil0" points="120,296 131,296 131,285 120,285 "/>
   <polygon class="fil0" points="153,296 164,296 164,285 153,285 "/>
  </g>
 </g>
</svg>
