<?xml version="1.0" encoding="UTF-8"?>
<!DOCTYPE svg PUBLIC "-//W3C//DTD SVG 1.1//EN" "http://www.w3.org/Graphics/SVG/1.1/DTD/svg11.dtd">
<!-- Creator: CorelDRAW X7 -->
<svg xmlns="http://www.w3.org/2000/svg" xml:space="preserve" width="9.995mm" height="10mm" version="1.1" style="shape-rendering:geometricPrecision; text-rendering:geometricPrecision; image-rendering:optimizeQuality; fill-rule:evenodd; clip-rule:evenodd"
viewBox="0 0 3035 3037"
 xmlns:xlink="http://www.w3.org/1999/xlink">
 <defs>
  <style type="text/css">
   <![CDATA[
    .fil0 {fill:black}
   ]]>
  </style>
 </defs>
 <g id="Warstwa_x0020_1">
  <metadata id="CorelCorpID_0Corel-Layer"/>
  <g id="_2020437489008">
   <path class="fil0" d="M1720 2398l0 -626c386,0 572,-234 607,-234 12,0 97,69 119,84 57,38 132,79 201,102 108,35 160,48 287,48l0 626c0,98 -24,161 -64,220 -41,60 -91,96 -157,128 -32,15 -64,28 -95,44l-291 136c-9,0 -341,-160 -386,-180 -123,-55 -221,-169 -221,-348zm-101 -677l0 152 -860 0 0 101 860 0 0 203 -860 0 0 101 860 0 0 202 -860 0 0 101 891 0c15,63 68,113 89,152l-1435 0 0 -2125 252 0c3,32 18,51 51,51l1012 0c33,0 48,-19 50,-51l253 0 0 1019c0,32 -121,35 -157,39 -61,6 -146,-11 -146,55zm-961 -1359c0,-121 227,2 258,-96 18,-59 25,-73 66,-111 104,-98 281,-55 327,106 16,59 60,44 133,44 151,0 126,-4 126,253l-910 0 0 -196zm1011 44l399 0c79,0 57,126 57,240l0 911c-39,9 -52,33 -102,44l1 -999c0,-53 2,-95 -51,-95l-304 0 0 -101zm-1467 152l0 2226c0,70 98,50 203,50l1391 0c158,0 119,24 243,73 11,5 15,5 23,9 28,15 11,-1 18,20l-1903 0c-45,0 -76,-15 -76,-57l0 -2416c0,-31 26,-57 57,-57l398 0 0 101 -303 0c-31,0 -51,20 -51,51zm626 -354c-97,0 -160,-19 -228,43 -17,16 -26,38 -37,58 -116,0 -232,0 -348,0 -79,0 -100,-7 -151,26 -30,20 -64,65 -64,113l0 2454c0,69 70,139 139,139l1948 0c43,0 90,-32 107,-57 143,75 126,70 245,10l331 -156c144,-72 265,-217 265,-385l0 -728c0,-117 -191,44 -555,-203 -26,-18 -47,-35 -73,-54 -132,-100 -100,-11 -181,11 0,-289 0,-578 0,-867 0,-60 10,-158 -9,-206 -53,-132 -189,-97 -333,-97 -73,0 -147,0 -221,0 -67,-126 -126,-101 -266,-101 -3,-46 -60,-112 -92,-136 -119,-89 -262,-92 -381,-2 -33,24 -92,90 -96,138z"/>
   <path class="fil0" d="M1922 1955c117,-9 281,-90 382,-155l23 -15c105,70 167,101 288,141 29,10 88,27 117,29 0,95 0,190 0,285 0,309 4,263 -207,369 -23,11 -186,93 -198,93 -11,0 -170,-80 -194,-91 -219,-105 -211,-74 -211,-365 0,-97 0,-194 0,-291zm-101 -44l0 525c0,140 113,196 202,240l304 139c18,0 195,-88 225,-103 28,-14 53,-23 79,-36 24,-12 45,-22 71,-35 20,-10 52,-34 65,-49 30,-36 66,-94 66,-156l0 -525c0,-67 -105,-50 -261,-112 -63,-25 -129,-59 -182,-97 -126,-90 -78,49 -446,142 -52,13 -123,8 -123,67z"/>
   <path class="fil0" d="M860 1064c232,0 202,30 202,-203l101 0c0,233 -30,203 203,203l0 101c-233,0 -203,-30 -203,202l-101 0c0,-232 30,-202 -202,-202l0 -101zm101 -253l0 152c-240,0 -202,-39 -202,253 0,70 94,50 202,50 0,240 -39,202 253,202 71,0 51,-94 51,-202 239,0 202,39 202,-253 0,-71 -95,-50 -202,-50 0,-240 39,-203 -253,-203 -31,0 -51,20 -51,51z"/>
   <path class="fil0" d="M2227 2406l-117 -114 -72 69c8,14 150,170 188,170 34,0 83,-62 118,-97l324 -327 -74 -71 -367 370z"/>
   <polygon class="fil0" points="759,1671 1518,1671 1518,1570 759,1570 "/>
   <path class="fil0" d="M1062 305c0,-64 101,-64 101,0 0,64 -101,64 -101,0zm-101 -13c0,221 304,221 304,0 0,-77 -67,-139 -165,-139 -69,0 -139,70 -139,139z"/>
   <polygon class="fil0" points="455,1671 658,1671 658,1570 455,1570 "/>
   <polygon class="fil0" points="455,1974 658,1974 658,1873 455,1873 "/>
   <polygon class="fil0" points="455,2278 658,2278 658,2177 455,2177 "/>
   <polygon class="fil0" points="455,2581 658,2581 658,2480 455,2480 "/>
  </g>
 </g>
</svg>
