<?xml version="1.0" encoding="UTF-8"?>
<!DOCTYPE svg PUBLIC "-//W3C//DTD SVG 1.1//EN" "http://www.w3.org/Graphics/SVG/1.1/DTD/svg11.dtd">
<!-- Creator: CorelDRAW X7 -->
<svg xmlns="http://www.w3.org/2000/svg" xml:space="preserve" width="10.0002mm" height="10mm" version="1.1" style="shape-rendering:geometricPrecision; text-rendering:geometricPrecision; image-rendering:optimizeQuality; fill-rule:evenodd; clip-rule:evenodd"
viewBox="0 0 364 364"
 xmlns:xlink="http://www.w3.org/1999/xlink">
 <defs>
  <style type="text/css">
   <![CDATA[
    .fil0 {fill:black}
   ]]>
  </style>
 </defs>
 <g id="Warstwa_x0020_1">
  <metadata id="CorelCorpID_0Corel-Layer"/>
  <g id="_2020428368784">
   <path class="fil0" d="M164 306c4,-1 15,-13 16,-17 3,1 7,4 17,6 4,2 1,-1 6,6 1,2 3,4 4,6 7,7 20,17 29,18 0,12 3,26 -9,27 -7,0 -13,-11 -18,-19 -2,-3 -4,-8 -7,-10 -11,-13 -26,-3 -34,-11 -3,-3 -2,-3 -4,-6zm27 -306l1 0c32,0 66,11 93,26 17,9 22,14 34,24 4,3 7,7 10,11 2,2 3,2 5,5 12,15 18,26 24,44 1,4 5,17 6,29l0 10c0,3 -1,6 -3,8 -8,7 -17,0 -22,-2 -12,-6 -24,-9 -40,-9 1,2 7,7 11,16 2,5 6,15 6,21 9,3 16,10 21,16 15,19 10,51 -9,65 -4,2 -7,5 -12,6 0,11 -2,17 -5,24 -10,20 -30,34 -54,34l-8 0 0 16c0,9 -9,20 -21,20l0 0c-11,0 -16,-4 -22,-13l-12 -18c-8,-11 -22,1 -35,-12 -2,-2 -5,-5 -5,-9 -7,2 -12,4 -20,4 -13,0 -26,-5 -34,-12 -12,-10 -13,-14 -18,-25 -12,0 -21,-2 -29,-6 -28,-15 -27,-43 -30,-49 -9,-20 -5,-40 10,-55 6,-5 3,-5 5,-14 1,-2 2,-4 3,-6 -3,1 -5,1 -8,2 -9,4 -21,15 -30,6 -2,-2 -3,-5 -3,-7l0 -8 0 0c0,-21 10,-47 19,-60 5,-8 6,-10 12,-17 2,-2 3,-3 5,-5 2,-4 6,-8 10,-10 2,-2 3,-3 5,-5 17,-13 35,-24 56,-32 32,-12 50,-13 84,-13zm67 315c-12,0 -17,0 -28,-6 -5,-2 -12,-8 -15,-12 24,0 46,-15 56,-35 11,8 14,11 32,11 0,25 -23,42 -45,42zm-179 -58l0 10c-20,0 -35,-13 -40,-29 -2,-5 -2,-7 -3,-12 -1,-10 -11,-20 -1,-39 3,-6 6,-8 10,-12 4,-4 3,-9 5,-15 1,-3 2,-6 3,-8 3,-7 3,-6 8,-6 11,0 22,2 30,6 10,4 20,12 24,12 5,0 11,-4 15,-6 26,-13 61,-16 89,-6 21,7 27,17 37,10 8,-6 12,-9 22,-12 6,-2 7,0 13,6 5,6 9,14 11,22 1,3 1,6 2,10 3,10 14,5 24,20 17,24 -8,61 -37,51 -14,-4 -10,-9 -21,-9 -8,0 -10,8 -17,17 -2,3 -4,4 -6,6 -4,3 -10,6 -15,8 -13,6 -31,5 -44,-2 -15,-7 -15,3 -26,13 -14,14 -39,14 -53,3 -2,-1 -4,-3 -6,-5 -23,-24 -10,-63 21,-70 21,-5 54,8 63,-13 3,-7 -2,-13 11,-13 12,0 20,2 20,-6 0,-4 -2,-6 -5,-6 -15,0 -28,-3 -35,9 -4,7 0,14 -8,15 -27,4 -50,-9 -77,17 -6,7 -14,21 -14,34zm43 -109c0,-36 6,-73 20,-102l10 -15c33,-44 66,-2 77,32 8,26 14,51 14,85 -13,-7 -36,-14 -52,-14 -4,0 -5,-1 -9,-1l-17 1c-14,2 -32,8 -43,14zm93 -133c13,0 40,10 52,15 15,7 28,17 41,27 22,18 43,54 43,83 0,4 1,5 1,8 -10,-5 -8,-6 -21,-10 -9,-3 -16,-4 -27,-5 -11,-1 -33,5 -43,11 -3,1 -3,2 -6,2 0,-8 -2,-31 -3,-39 -3,-28 -12,-57 -27,-80 -4,-6 -9,-10 -10,-12zm-106 131c-4,-1 -14,-9 -35,-12 -15,-2 -27,-1 -41,4 -13,4 -11,5 -21,10l1 -15c5,-29 13,-41 30,-63 21,-25 60,-46 92,-52 3,-1 11,-3 14,-3 -3,5 -9,8 -17,25 -13,24 -18,48 -21,76l-2 30z"/>
   <path class="fil0" d="M267 206c0,10 10,4 18,11 10,9 3,20 12,20 14,0 5,-32 -18,-36 -3,-1 -6,-2 -8,-1 -3,2 -4,5 -4,6z"/>
   <path class="fil0" d="M218 255c2,0 4,-1 5,-2 2,-2 2,-3 2,-6 0,-5 2,-8 5,-11 3,-3 5,-4 10,-5 7,-1 9,-1 9,-8 0,-10 -33,-4 -36,21 -1,4 -1,11 5,11z"/>
   <path class="fil0" d="M115 265c0,5 1,8 7,8 10,0 1,-13 14,-21 6,-4 10,-2 14,-4 4,-4 1,-11 -3,-11l-4 0c-14,0 -28,14 -28,28z"/>
   <path class="fil0" d="M67 169c0,12 9,3 19,13 6,6 3,19 11,19 15,0 3,-37 -24,-37 -3,0 -6,2 -6,5z"/>
  </g>
 </g>
</svg>
