<?xml version="1.0" encoding="UTF-8"?>
<!DOCTYPE svg PUBLIC "-//W3C//DTD SVG 1.1//EN" "http://www.w3.org/Graphics/SVG/1.1/DTD/svg11.dtd">
<!-- Creator: CorelDRAW X7 -->
<svg xmlns="http://www.w3.org/2000/svg" xml:space="preserve" width="9.9124mm" height="10mm" version="1.1" style="shape-rendering:geometricPrecision; text-rendering:geometricPrecision; image-rendering:optimizeQuality; fill-rule:evenodd; clip-rule:evenodd"
viewBox="0 0 366 369"
 xmlns:xlink="http://www.w3.org/1999/xlink">
 <defs>
  <style type="text/css">
   <![CDATA[
    .fil0 {fill:black}
   ]]>
  </style>
 </defs>
 <g id="Warstwa_x0020_1">
  <metadata id="CorelCorpID_0Corel-Layer"/>
  <g id="_2020198501264">
   <path class="fil0" d="M181 310c14,0 28,5 33,13l-65 0c1,-7 20,-13 32,-13zm-4 -156l9 0 0 146 -9 0 0 -146zm115 -29l48 0c0,6 -4,13 -5,18l-38 0c-1,-6 -4,-12 -5,-18zm-140 0l59 0 -5 18 -49 0c-1,-6 -4,-12 -5,-18zm-86 18l-38 0c-1,-5 -5,-13 -5,-18l48 0c-1,6 -5,13 -5,18zm159 -18l54 0 -6 18 -43 0c-1,-2 -2,-7 -3,-9 0,-2 -1,-2 -1,-4 -1,-2 -1,-4 -1,-5zm-92 18l-44 0c0,-5 -4,-12 -5,-18l54 0c-1,6 -4,13 -5,18zm49 -124c1,3 4,6 6,9 13,26 25,57 25,88l-63 0c0,-29 9,-52 20,-77l8 -16c2,-3 1,-4 4,-4zm41 7c9,1 59,28 69,35 5,4 10,6 15,10 13,10 33,29 34,45l-51 0c0,-9 -6,-24 -10,-30 -2,-4 -4,-8 -7,-12 -2,-2 -3,-3 -4,-5 -16,-21 -45,-41 -46,-43zm0 0l-2 -1 2 1zm-81 -1c-6,6 -20,14 -27,22 -13,13 -23,22 -32,39 -4,6 -10,20 -10,30l-51 0c0,-11 13,-26 20,-33 3,-2 4,-3 7,-6 21,-19 50,-32 74,-44 3,-1 16,-7 19,-8zm79 0l0 0zm-79 0l0 0zm53 -5c4,3 9,6 14,9 20,13 44,33 58,54 4,7 12,22 12,33l-56 0c-3,-32 -7,-48 -18,-75 -1,-3 -3,-6 -5,-10 -1,-1 -2,-3 -2,-5l-3 -6zm-55 96l-57 0c0,-2 2,-11 5,-17 11,-29 41,-53 66,-70 5,-3 9,-6 14,-9 -2,7 -19,29 -26,81 -1,3 -2,11 -2,15zm-129 5c0,5 6,22 8,28 2,4 3,5 8,5l39 0c9,0 11,-9 11,-16l2 0c0,7 2,16 10,16l44 0c5,0 7,-1 9,-5 0,-2 2,-9 2,-11 6,5 0,16 13,16l10 0 0 146c0,4 -7,1 -19,10 -7,5 -23,23 -4,23l75 0c22,0 0,-23 -13,-28 -8,-3 -10,-2 -10,-5l0 -146 10 0c13,0 7,-11 13,-16 0,7 2,16 11,16l43 0c5,0 7,-1 9,-5 1,-2 2,-8 2,-11 6,5 0,16 13,16 7,0 40,1 44,-1 3,-2 4,-7 5,-13 2,-3 6,-15 6,-18 0,-20 -18,-41 -30,-51 -14,-10 -16,-13 -32,-23 -16,-10 -38,-20 -55,-28 -8,-4 -48,-20 -54,-20 -9,0 -76,30 -89,37 -4,2 -8,5 -12,7l-22 14c-4,3 -6,5 -10,8 -16,12 -37,33 -37,55z"/>
   <path class="fil0" d="M338 319l0 28 -14 -7c-3,-2 -11,-6 -15,-7 2,-2 27,-13 29,-14zm-81 28l0 -28 14 7c4,1 12,5 14,7 -4,1 -10,5 -14,7 -5,2 -10,4 -14,7zm8 -36l65 0 -4 2c-1,1 -2,2 -4,2 -3,2 -5,3 -8,4 -20,11 -15,10 -33,1 -4,-2 -13,-6 -16,-9zm-23 -21l110 0 0 12 -110 0 0 -12zm80 -90c10,0 16,6 16,17l0 63 -16 0 0 -80zm-39 -2c0,-2 1,-4 3,-4l22 0c2,0 3,2 3,4l0 82 -28 0 0 -82zm-26 16c0,-9 7,-14 16,-14l0 80 -16 0 0 -66zm-10 0l0 39 -17 0 0 10 17 0 0 17c-17,0 -15,-2 -15,26 0,7 7,5 14,5l0 58c13,0 11,1 11,-12 4,0 15,-7 20,-9 25,-11 15,-13 42,0 3,2 6,3 10,5 11,5 9,3 9,16l10 0 0 -58c17,0 14,3 14,-25 0,-7 -7,-6 -15,-6l0 -17 18 0c0,-12 4,-10 -18,-10l0 -41c0,-6 -4,-13 -8,-16 -6,-4 -9,-5 -19,-5 -1,-1 -4,-7 -13,-7l-20 0c-8,0 -7,3 -11,6 -3,2 -4,1 -8,1 -3,0 -4,1 -7,2 -7,3 -14,11 -14,21z"/>
   <path class="fil0" d="M109 319l0 28 -30 -14c2,-2 4,-2 7,-4l15 -7c3,-1 6,-2 8,-3zm-82 28l0 -28 14 6c4,2 11,6 15,7l-29 15zm8 -36l65 0 -3 3c-2,0 -3,1 -4,1 -36,17 -18,13 -49,1 -3,-1 -6,-3 -9,-5zm-22 -21l110 0 0 12 -110 0 0 -12zm79 -90c10,0 16,6 16,16l0 64 -16 0 0 -80zm-39 -1c0,-7 6,-5 26,-5 2,0 4,3 4,6l0 80 -30 0 0 -81zm-25 14c0,-3 3,-8 4,-9 3,-2 7,-4 11,-4l0 80 -15 0 0 -67zm-10 2l0 38 -18 0 0 10 18 0 0 17c-18,0 -15,-1 -15,24 0,3 0,5 1,7 6,1 6,0 13,0l0 58 10 0c0,-14 -1,-10 9,-16l32 -14c2,0 18,8 21,9 22,11 20,5 20,21l9 0 0 -58c17,0 15,3 15,-27 0,-5 -11,-4 -16,-4l0 -17 19 0 0 -10 -19 0 0 -41c0,-6 -4,-14 -8,-16 -7,-5 -9,-5 -20,-5 -2,-10 -21,-7 -32,-7 -6,0 -10,5 -11,6 -2,1 -28,-1 -28,25z"/>
  </g>
 </g>
</svg>
