<?xml version="1.0" encoding="UTF-8"?>
<!DOCTYPE svg PUBLIC "-//W3C//DTD SVG 1.1//EN" "http://www.w3.org/Graphics/SVG/1.1/DTD/svg11.dtd">
<!-- Creator: CorelDRAW X7 -->
<svg xmlns="http://www.w3.org/2000/svg" xml:space="preserve" width="9.9878mm" height="10mm" version="1.1" style="shape-rendering:geometricPrecision; text-rendering:geometricPrecision; image-rendering:optimizeQuality; fill-rule:evenodd; clip-rule:evenodd"
viewBox="0 0 327 328"
 xmlns:xlink="http://www.w3.org/1999/xlink">
 <defs>
  <style type="text/css">
   <![CDATA[
    .fil0 {fill:black}
   ]]>
  </style>
 </defs>
 <g id="Warstwa_x0020_1">
  <metadata id="CorelCorpID_0Corel-Layer"/>
  <g id="_2020436072112">
   <path class="fil0" d="M270 301l12 0c0,2 3,6 4,8 1,2 4,6 4,8l-12 0 -8 -16zm-199 -39l12 21c1,2 4,6 4,7l-33 0c2,-3 15,-26 17,-28zm47 18l193 0 0 10 -187 0c-1,-2 -4,-8 -6,-10zm-92 37l-11 0c6,-10 30,-52 38,-66l5 -10c2,2 6,9 6,10 0,1 -16,29 -19,33 -3,5 -6,10 -9,16 -3,6 -7,11 -10,17zm148 -116c0,-17 11,-33 21,-47 2,-3 17,-22 19,-22l36 0c4,0 26,31 30,38 10,18 17,39 0,57 -6,6 -16,11 -25,11l-45 0c-14,0 -27,-9 -32,-22 -2,-3 -4,-10 -4,-15zm-161 -62c2,-1 7,-4 9,-5 0,2 1,4 3,6 1,2 2,3 3,6l95 165c1,2 3,4 4,6l-12 0c-1,-3 -23,-41 -25,-45l-71 -121c-2,-4 -5,-9 -6,-12zm15 -17c0,-5 2,-5 7,-8 3,-1 6,-4 9,-2 2,1 31,52 36,61l35 62c4,5 6,11 14,13 4,1 155,0 180,0 9,0 8,6 8,15 0,4 -3,6 -6,6l-197 0c-3,0 -3,-2 -4,-3l-27 -46c-1,-2 -1,-3 -2,-5l-32 -56c-4,-6 -7,-12 -11,-18l-5 -9c-2,-3 -5,-8 -5,-10zm221 0l-33 0c-1,-4 -3,-11 -3,-14 15,0 10,0 24,-4 5,-1 10,-3 15,-3 0,5 -3,16 -3,21zm-30 -25c-4,0 -18,-5 -18,3 0,7 4,19 4,26 -2,1 -5,4 -7,6 -1,2 -2,3 -3,4 -12,15 -31,42 -31,61 0,14 1,24 10,34l6 7c-11,0 -23,0 -34,0 -5,0 -13,1 -16,-1 -2,-2 -11,-19 -13,-22 -2,-4 -4,-7 -6,-11l-51 -87c-5,-9 -7,-17 -20,-17 -5,0 -12,6 -16,8 -6,4 -8,8 -8,17 -20,11 -21,7 -4,36l27 46c2,2 13,22 13,23 0,1 -11,20 -13,23l-26 46c-2,3 -13,20 -13,23 0,3 2,5 5,5l25 0c4,0 7,-6 10,-12 2,-3 3,-5 4,-7 2,-4 3,-7 5,-7l43 0c2,0 2,1 3,3 3,4 13,23 16,23 6,0 27,2 29,-1 4,-4 0,-9 -3,-14 -2,-4 -4,-7 -6,-11l126 0c2,3 14,26 18,26 6,0 26,2 29,-1 3,-3 1,-6 -1,-9 -1,-2 -2,-3 -3,-5 -1,-2 -2,-4 -3,-5 -1,-2 -2,-4 -3,-6 6,0 12,0 17,0 7,0 11,1 11,-6 0,-5 -1,-14 0,-18 1,-3 5,-5 5,-12l0 -13c0,-7 -7,-14 -14,-14 -8,-1 -20,0 -29,0 1,-2 7,-6 11,-14 15,-27 -1,-56 -17,-78 -2,-2 -3,-3 -4,-5l-14 -15c-2,-2 1,-9 2,-15 3,-18 5,-21 -7,-21 -12,0 -17,3 -26,6 -2,0 -8,1 -10,1z"/>
   <path class="fil0" d="M104 70c0,-6 10,-28 13,-33 7,-12 19,-27 34,-19 2,2 6,4 7,5 4,4 7,9 10,14 3,5 13,26 13,33 -9,-5 -22,-6 -33,-7 -7,0 0,0 -10,0 -2,1 -4,0 -6,1 -7,0 -23,3 -28,6zm64 -52c18,4 24,4 42,12 14,6 32,17 43,28 3,2 8,5 9,9 -18,-4 -33,-5 -51,-1 -6,1 -16,5 -18,5 -1,-10 -12,-37 -20,-47 -2,-2 -4,-4 -5,-6zm-76 53c-4,0 -27,-11 -57,-7l-12 3c3,-6 22,-21 29,-25 15,-10 32,-17 50,-21 5,-1 10,-2 15,-3 -8,12 -5,4 -15,24 -3,5 -10,24 -10,29zm45 -66c-31,0 -63,11 -83,23l-23 16c-2,1 -2,2 -4,3 -5,5 -27,26 -27,32 0,12 15,1 26,-2 20,-5 45,-3 63,6 7,3 7,1 16,-2 5,-2 14,-5 20,-6 4,0 9,-1 12,-1l0 148c0,7 11,7 11,0l0 -148c6,0 16,2 22,4 24,6 12,10 30,3 7,-3 15,-5 22,-6l13 -1c6,0 19,2 24,3 12,3 26,13 26,2 0,-4 -12,-18 -17,-22 -2,-3 -4,-5 -6,-7l-15 -12c-24,-18 -63,-33 -99,-33 -1,-7 -10,-7 -11,0z"/>
   <path class="fil0" d="M227 153c-8,2 -16,8 -16,17 0,23 21,20 25,20 8,2 11,16 -5,16 -3,0 -6,-1 -7,-3 -1,-1 -2,-4 -6,-4 -8,0 -8,14 9,18 0,5 -1,10 5,10 6,0 6,-5 6,-10 21,-5 20,-30 3,-36 -4,-2 -8,-1 -12,-2 -9,-1 -12,-15 5,-15 2,0 4,1 6,2 2,1 3,8 9,6 7,-4 2,-11 -2,-14 -3,-3 -5,-4 -9,-5 0,-6 0,-10 -6,-10 -6,0 -5,4 -5,10z"/>
  </g>
 </g>
</svg>
