<?xml version="1.0" encoding="UTF-8"?>
<!DOCTYPE svg PUBLIC "-//W3C//DTD SVG 1.1//EN" "http://www.w3.org/Graphics/SVG/1.1/DTD/svg11.dtd">
<!-- Creator: CorelDRAW X7 -->
<svg xmlns="http://www.w3.org/2000/svg" xml:space="preserve" width="10mm" height="10mm" version="1.1" style="shape-rendering:geometricPrecision; text-rendering:geometricPrecision; image-rendering:optimizeQuality; fill-rule:evenodd; clip-rule:evenodd"
viewBox="0 0 166 166"
 xmlns:xlink="http://www.w3.org/1999/xlink">
 <defs>
  <style type="text/css">
   <![CDATA[
    .fil0 {fill:black}
   ]]>
  </style>
 </defs>
 <g id="Warstwa_x0020_1">
  <metadata id="CorelCorpID_0Corel-Layer"/>
  <g id="_2020436098032">
   <path class="fil0" d="M32 52c2,0 3,-1 4,-1 0,3 1,3 -2,2l-2 -1zm-3 -52l2 0c5,0 10,2 14,6 8,8 7,16 7,26 0,7 -7,16 -11,17l0 3 16 0 0 -49c0,-2 1,-3 3,-3l103 0c2,0 3,1 3,3l0 77c0,2 -1,3 -3,3l-103 0c-2,0 -3,-1 -3,-3l0 -13 -5 0 0 13c0,4 -5,4 -5,0l0 -15c0,-3 1,-3 4,-3 6,0 14,1 18,-2 3,-1 6,-4 7,-7 1,-1 1,-3 2,-5 0,-2 -1,-4 -3,-4 -4,0 0,8 -8,12 -5,2 -22,0 -26,1 -2,0 -2,3 -5,3 -1,0 -4,-3 -5,-3 -1,0 -3,3 -5,3 -2,0 -3,-3 -4,-3l-8 0c-11,0 -9,11 -9,19 0,4 1,7 -2,7 -2,0 -3,-1 -3,-3l0 -16c0,-6 6,-12 12,-12l9 0 0 -3c-2,-1 -4,-3 -5,-4 -6,-5 -6,-11 -6,-19 -3,0 -2,-3 -2,-5 0,-12 10,-21 21,-21zm-3 51c1,0 2,1 4,1l-1 1c-4,1 -3,1 -3,-2zm36 1l0 -47 99 0 0 73 -99 0 0 -11c12,0 21,-9 21,-19l0 -2c0,-8 -13,-10 -15,-1 -1,3 0,5 -6,7zm-46 -22l0 -3c7,0 8,0 15,-2 6,-2 9,-5 13,-1 3,3 3,2 3,6 0,22 -31,22 -31,0zm29 -16c0,1 1,3 1,4 -1,0 -2,-1 -3,-1 1,-1 1,-2 2,-3zm-26 7c-2,0 -3,0 -6,0 0,-5 3,-9 5,-11 2,-1 3,-3 5,-3 8,-3 12,-1 18,2 -5,9 -2,7 -8,10 -4,1 -8,2 -14,2z"/>
   <path class="fil0" d="M111 67l-15 0c-4,0 -4,-5 0,-5l15 0c4,0 4,5 0,5zm-5 -16c0,-1 4,-3 6,-4 7,-4 4,-3 12,-3 0,6 0,5 13,5l0 13 -17 0c-2,0 -1,-1 -3,-3 -3,-3 -6,-2 -11,-2l0 -6zm24 -12l20 0 0 5 -20 0 0 -5zm-34 2c2,0 6,-4 8,-4 1,0 5,4 7,4l0 1c-2,0 -6,4 -7,4 -2,0 -6,-4 -8,-4l0 -1zm15 -20l-15 0c-4,0 -4,-5 0,-5l15 0c4,0 4,5 0,5zm-23 -4c0,10 8,9 13,9 0,5 1,6 -1,7l-9 5c-7,4 0,7 7,11 4,2 3,1 3,8l-6 0c-4,0 -7,3 -7,8 0,4 4,8 7,8l17 0c2,0 3,-1 4,-2 2,-1 2,-2 3,-4l19 0c3,0 4,0 4,-2l0 -16 11 0c1,0 2,-1 2,-2l0 -11c0,-1 -1,-2 -2,-2l-26 0c-3,0 -3,3 -3,5 -9,0 -6,0 -15,-5 -3,-2 -3,-1 -3,-8l6 0c4,0 7,-3 7,-9 0,-3 -3,-7 -7,-7l-17 0c-3,0 -7,4 -7,7z"/>
   <path class="fil0" d="M119 156c0,-4 2,-6 6,-6l29 0c7,0 7,6 7,11l-42 0 0 -5zm47 -1l0 8c0,2 -1,3 -3,3l-46 0c-4,0 -3,-5 -3,-11 0,-5 5,-10 10,-10l6 0 0 -5c-3,-1 -6,-5 -8,-7 -1,-3 -3,-6 -3,-10l0 -15c0,-9 9,-17 17,-17 19,0 17,-2 17,8 4,1 8,4 8,9l0 15c0,7 -7,15 -11,17l0 5 6 0c5,0 10,5 10,10zm-31 -13c4,1 6,1 10,0l0 3 -10 0 0 -3zm-6 -10c2,1 7,5 17,2 1,0 2,0 3,-1 1,0 1,-1 2,-1 -2,4 -11,7 -18,4 -1,-1 -3,-2 -4,-4zm0 0l0 0zm-5 -12c0,-5 0,-12 1,-16l3 -4c5,-5 12,-4 20,-4 0,10 0,6 5,8 1,1 2,3 2,6l0 10c0,1 0,2 0,2 -1,1 -1,1 -2,2 -5,5 -12,7 -18,5 -4,-2 -11,-6 -11,-9z"/>
   <path class="fil0" d="M62 156c0,-7 6,-6 12,-6 2,0 7,3 9,3 3,0 6,-3 9,-3 11,0 12,0 12,11l-42 0 0 -5zm44 10l-46 0c-4,0 -3,-5 -3,-11 0,-5 5,-10 10,-10l6 0 0 -3 -13 0c-2,0 -3,-1 -3,-2l0 -27c0,-4 1,-8 3,-10 0,-2 1,-3 2,-4 0,-1 1,-1 1,-2 2,-2 3,-3 5,-4 2,-1 3,-2 4,-3 12,-5 25,-1 32,9 3,4 5,9 5,14l0 27c0,1 -1,2 -3,2l-13 0 0 3 6 0c5,0 10,5 10,10 0,6 1,11 -3,11zm-28 -24l10 0 0 4c-1,0 -4,1 -5,1 -1,0 -4,-1 -5,-1l0 -4zm-16 -26c0,-4 1,-7 2,-9 1,-3 2,-5 4,-7 5,-5 9,-6 16,-6 6,0 11,3 14,6 2,2 3,4 4,7 1,2 2,5 2,9l0 21 -42 0 0 -21z"/>
   <path class="fil0" d="M5 156c0,-4 2,-6 6,-6l29 0c7,0 7,6 7,11l-42 0 0 -5zm44 10l-46 0c-2,0 -3,-1 -3,-3l0 -8c0,-5 5,-10 10,-10l6 0 0 -5c-3,-1 -6,-5 -8,-7 -4,-7 -3,-13 -3,-23 0,-10 10,-19 20,-19l2 0c10,0 20,9 20,19l0 13c0,7 -7,15 -11,17l0 5 6 0c5,0 10,5 10,10 0,6 1,11 -3,11zm-28 -24c4,1 6,1 10,0l0 3 -10 0 0 -3zm-6 -10c2,1 7,5 17,2 1,0 2,0 3,-1 1,0 1,-1 2,-1 -2,4 -11,7 -18,4 -1,-1 -3,-2 -4,-4zm0 0l0 0zm-5 -12c0,-9 -1,-18 9,-22 7,-4 14,-2 18,3 5,5 4,12 4,19 0,3 -6,7 -10,9 -5,1 -10,1 -15,-2 -1,-1 -6,-5 -6,-7z"/>
   <path class="fil0" d="M10 67l0 13c0,4 6,4 6,0l0 -13c0,-3 -6,-3 -6,0z"/>
  </g>
 </g>
</svg>
