<?xml version="1.0" encoding="UTF-8"?>
<!DOCTYPE svg PUBLIC "-//W3C//DTD SVG 1.1//EN" "http://www.w3.org/Graphics/SVG/1.1/DTD/svg11.dtd">
<!-- Creator: CorelDRAW X7 -->
<svg xmlns="http://www.w3.org/2000/svg" xml:space="preserve" width="9.993mm" height="10mm" version="1.1" style="shape-rendering:geometricPrecision; text-rendering:geometricPrecision; image-rendering:optimizeQuality; fill-rule:evenodd; clip-rule:evenodd"
viewBox="0 0 345 345"
 xmlns:xlink="http://www.w3.org/1999/xlink">
 <defs>
  <style type="text/css">
   <![CDATA[
    .fil0 {fill:black}
   ]]>
  </style>
 </defs>
 <g id="Warstwa_x0020_1">
  <metadata id="CorelCorpID_0Corel-Layer"/>
  <g id="_2020436088688">
   <path class="fil0" d="M56 167l11 0 0 22 -11 0 0 -22zm-12 -7l0 29 -33 0 0 -178 100 0 0 178 -33 0 0 -29c0,-2 -3,-4 -4,-4l-25 0c-2,0 -5,2 -5,4zm-44 -156l0 192c0,2 2,4 4,4l114 0c2,0 4,-2 4,-4l0 -192c0,-1 -2,-4 -4,-4l-114 0c-2,0 -4,3 -4,4z"/>
   <path class="fil0" d="M267 214l58 58c-2,1 -7,0 -9,1 -2,0 -5,1 -5,4l0 57 -22 0 0 -41c0,-1 -2,-4 -4,-4l-36 0c-2,0 -4,3 -4,4l0 41 -23 0 0 -57c0,-6 -10,-4 -14,-4l59 -59zm-78 64c0,8 9,6 22,6l0 57c0,1 3,4 4,4l37 0c1,0 4,-3 4,-4l0 -41 22 0 0 41c0,1 2,4 4,4l36 0c2,0 4,-3 4,-4l0 -57c13,0 23,2 23,-6 0,-4 -15,-17 -19,-20l-48 -49c-13,-13 -10,-12 -32,10l-48 48c-3,3 -9,7 -9,11z"/>
   <path class="fil0" d="M284 100c28,0 27,-1 27,28 0,14 0,28 0,42 -3,-2 -6,-9 -11,-9 -3,0 -5,3 -5,6 0,4 12,14 15,18 6,6 8,6 14,0 3,-4 15,-14 15,-18 0,-3 -2,-6 -5,-6 -5,0 -8,7 -12,9 0,-17 0,-34 0,-50 0,-11 1,-15 -3,-21 -9,-12 -21,-10 -35,-10l0 11z"/>
   <path class="fil0" d="M17 245c0,3 2,5 5,5 5,0 8,-6 11,-8 0,17 0,33 0,50 0,10 0,15 4,21 8,12 21,10 35,10l0 -11c-28,0 -28,1 -28,-28 0,-14 0,-28 0,-42 4,2 7,8 12,8 3,0 5,-2 5,-5 0,-4 -12,-15 -15,-18 -8,-8 -9,-4 -19,5 -2,3 -4,4 -6,6 -2,2 -4,3 -4,7z"/>
   <path class="fil0" d="M145 225c0,6 -1,9 6,9 2,0 4,-3 4,-4 1,-1 1,-7 1,-7 3,-26 24,-48 49,-50 10,-1 12,0 12,-7 0,-10 -29,-1 -34,2 -22,10 -38,33 -38,57z"/>
   <path class="fil0" d="M133 4c0,3 0,6 4,7 9,2 23,-1 41,17 5,5 10,12 13,20 1,4 2,8 3,13 1,9 0,12 8,12 8,0 5,-33 -16,-53 -20,-20 -53,-24 -53,-16z"/>
   <path class="fil0" d="M167 225c0,6 0,9 7,9 8,0 0,-15 14,-29 16,-17 29,-3 29,-17 0,-12 -50,1 -50,37z"/>
   <path class="fil0" d="M133 27c0,14 13,0 29,16 17,17 4,30 17,30 10,0 4,-35 -21,-46 -9,-4 -10,-5 -20,-5 -2,0 -5,3 -5,5z"/>
   <path class="fil0" d="M189 226c0,6 1,8 7,8 1,0 2,-1 3,-2 2,-2 1,-1 1,-4 3,-17 17,-4 17,-18 0,-10 -28,-2 -28,16z"/>
   <path class="fil0" d="M133 49c0,3 0,4 2,6 4,3 13,-1 15,11 1,6 2,7 7,7 8,0 6,-28 -19,-28 -2,0 -5,2 -5,4z"/>
   <path class="fil0" d="M44 27c0,14 -1,18 7,18 6,0 5,-12 5,-18 0,-6 -12,-6 -12,0z"/>
   <path class="fil0" d="M67 27c0,14 -2,18 7,18 6,0 4,-12 4,-18 0,-6 -11,-6 -11,0z"/>
   <path class="fil0" d="M89 27c0,14 -2,18 7,18 6,0 4,-12 4,-18 0,-6 -11,-6 -11,0z"/>
   <path class="fil0" d="M22 27c0,14 -2,18 7,18 6,0 4,-12 4,-18 0,-6 -11,-6 -11,0z"/>
   <path class="fil0" d="M22 60c0,14 -2,18 7,18 6,0 4,-11 4,-18 0,-6 -11,-6 -11,0z"/>
   <path class="fil0" d="M44 60c0,14 -1,18 7,18 6,0 5,-11 5,-18 0,-6 -12,-6 -12,0z"/>
   <path class="fil0" d="M67 60c0,14 -2,18 7,18 6,0 4,-11 4,-18 0,-6 -11,-6 -11,0z"/>
   <path class="fil0" d="M89 60c0,14 -2,18 7,18 6,0 4,-11 4,-18 0,-6 -11,-6 -11,0z"/>
   <path class="fil0" d="M22 127c0,14 -2,18 7,18 6,0 4,-12 4,-18 0,-6 -11,-6 -11,0z"/>
   <path class="fil0" d="M44 127c0,14 -1,18 7,18 6,0 5,-12 5,-18 0,-6 -12,-6 -12,0z"/>
   <path class="fil0" d="M67 127c0,14 -2,18 7,18 6,0 4,-12 4,-18 0,-6 -11,-6 -11,0z"/>
   <path class="fil0" d="M89 127c0,14 -2,18 7,18 6,0 4,-12 4,-18 0,-6 -11,-6 -11,0z"/>
   <path class="fil0" d="M22 160c0,14 -2,18 7,18 6,0 4,-11 4,-18 0,-6 -11,-6 -11,0z"/>
   <path class="fil0" d="M89 160c0,14 -2,18 7,18 6,0 4,-11 4,-18 0,-6 -11,-6 -11,0z"/>
   <path class="fil0" d="M67 93c0,14 -2,18 7,18 6,0 4,-11 4,-18 0,-5 -11,-5 -11,0z"/>
   <path class="fil0" d="M44 93c0,14 -1,18 7,18 6,0 5,-11 5,-18 0,-5 -12,-5 -12,0z"/>
   <path class="fil0" d="M22 93c0,14 -2,18 7,18 6,0 4,-11 4,-18 0,-5 -11,-5 -11,0z"/>
   <path class="fil0" d="M89 93c0,14 -2,18 7,18 6,0 4,-11 4,-18 0,-5 -11,-5 -11,0z"/>
   <polygon class="fil0" points="172,100 189,100 189,89 172,89 "/>
   <polygon class="fil0" points="256,100 272,100 272,89 256,89 "/>
   <polygon class="fil0" points="228,100 245,100 245,89 228,89 "/>
   <polygon class="fil0" points="200,100 217,100 217,89 200,89 "/>
   <polygon class="fil0" points="83,323 100,323 100,312 83,312 "/>
   <polygon class="fil0" points="111,323 128,323 128,312 111,312 "/>
   <polygon class="fil0" points="139,323 156,323 156,312 139,312 "/>
   <polygon class="fil0" points="167,323 183,323 183,312 167,312 "/>
  </g>
 </g>
</svg>
