<?xml version="1.0" encoding="UTF-8"?>
<!DOCTYPE svg PUBLIC "-//W3C//DTD SVG 1.1//EN" "http://www.w3.org/Graphics/SVG/1.1/DTD/svg11.dtd">
<!-- Creator: CorelDRAW X7 -->
<svg xmlns="http://www.w3.org/2000/svg" xml:space="preserve" width="10.4918mm" height="10mm" version="1.1" style="shape-rendering:geometricPrecision; text-rendering:geometricPrecision; image-rendering:optimizeQuality; fill-rule:evenodd; clip-rule:evenodd"
viewBox="0 0 369 352"
 xmlns:xlink="http://www.w3.org/1999/xlink">
 <defs>
  <style type="text/css">
   <![CDATA[
    .fil0 {fill:black}
   ]]>
  </style>
 </defs>
 <g id="Warstwa_x0020_1">
  <metadata id="CorelCorpID_0Corel-Layer"/>
  <g id="_2020198527984">
   <path class="fil0" d="M128 259c0,7 4,12 10,13 -1,2 -1,2 -6,4 -19,10 -41,9 -61,1 -21,-10 -39,-36 -39,-59 0,-17 4,-31 13,-44 39,-52 116,-27 124,30 2,10 2,6 -16,24l-21 21c-2,3 -4,5 -4,10zm-128 -40l0 -8c1,-18 6,-35 16,-51 2,-3 3,-4 3,-9l0 -65c0,-35 -3,-33 36,-33 9,0 8,12 -2,12l-23 0 0 53 38 0c5,0 17,-5 30,-5 7,0 15,1 21,2l0 -50 -35 0c-5,0 -8,-2 -8,-6 0,-5 3,-6 9,-6 -1,-5 -2,-6 -2,-13 0,-13 12,-24 24,-24l10 1c1,-5 4,-9 7,-11 6,-5 11,-6 19,-6 10,0 20,9 22,17 18,-8 42,15 31,36l50 0c11,0 17,4 17,16l0 49c4,-3 6,-8 13,-8 5,0 9,2 11,6 3,5 14,36 17,44 2,7 2,11 6,12l8 3c14,5 5,12 2,12 -3,0 -17,-6 -19,-8 -5,-4 -17,-39 -20,-49 -1,-3 -2,-6 -4,-9 -3,1 -7,6 -9,9l-96 95c-3,3 -33,32 -34,35 7,4 36,14 44,17 8,2 15,4 18,12 1,3 2,5 3,8 3,9 12,37 16,44 4,-1 7,-5 10,-8l121 -122c3,-2 7,-5 8,-9 -5,-3 -20,-5 -20,-12 0,-3 4,-6 7,-5 4,1 7,2 10,4 6,2 14,4 14,12 0,8 -3,10 -7,14l-120 120c-4,4 -15,17 -20,17 -12,0 -13,-5 -16,-15l-16 -41c-2,-5 -1,-5 -6,-7 -3,-1 -8,-3 -10,-4l-13 12c-27,20 -70,25 -101,10 -5,-2 -9,-4 -14,-7 -3,-2 -11,-6 -11,-11 0,-3 3,-6 6,-6 2,0 18,11 22,13 22,11 51,11 74,1 5,-2 9,-4 13,-7 3,-2 10,-8 12,-8 -1,-2 -2,-2 -5,-3 -6,-2 -5,-2 -11,2 -2,1 -4,2 -6,3 -35,21 -82,9 -105,-24 -3,-4 -5,-9 -7,-13 -4,-10 -7,-22 -7,-33 0,-25 13,-49 33,-64 17,-13 30,-15 53,-15 18,0 39,12 48,21 9,9 17,19 21,31 2,4 4,10 4,14l9 -9c-3,-12 -9,-23 -16,-33 -7,-9 -16,-16 -26,-22 -4,-3 -8,-5 -13,-7 -16,-6 -36,-8 -53,-3 -6,1 -12,3 -17,5 -6,3 -10,5 -15,9 -6,5 -12,10 -17,16 -6,7 -10,13 -13,21 -12,27 -11,63 8,87 1,2 3,4 3,7 0,5 -9,14 -23,-20 -4,-10 -7,-22 -7,-33zm198 -35c-1,-8 -9,-19 -10,-23l32 0 -22 23zm-42 -55l96 0c-1,3 -8,9 -11,11 -2,2 -9,11 -11,11l-49 0c-2,0 -2,-1 -3,-3 -1,-1 -2,-2 -3,-3 -2,-2 -4,-4 -6,-6 -2,-2 -4,-3 -6,-5 -2,-1 -5,-3 -7,-5zm-126 14l0 -14 16 0 -16 14zm132 -78l90 0 0 53 -90 0 0 -53zm-32 0l21 0 0 53 -17 0c-2,0 -2,0 -4,-1l0 -52zm26 -12c3,-5 10,-19 10,-25 5,-1 10,-2 15,1 7,5 8,16 4,22 -3,2 -3,2 -8,2 -7,0 -14,0 -21,0zm-62 -10c0,-12 9,-18 21,-15l4 13c1,4 5,9 6,12 -7,0 -14,0 -21,0 -5,0 -6,0 -8,-2 -1,-2 -2,-5 -2,-8zm50 10l-6 0c-3,-4 -5,-8 -7,-12 -4,-8 -9,-20 0,-27 11,-9 25,1 25,11 0,4 -4,12 -5,15 -2,3 -6,10 -7,13z"/>
   <path class="fil0" d="M107 243l0 -26c4,1 9,5 9,11l0 3c0,5 -5,11 -9,12zm-18 -51c0,-5 3,-10 7,-11l0 19c-4,-1 -7,-4 -7,-8zm7 -23c-14,2 -26,23 -12,36 4,4 7,5 12,8l0 31c-2,0 -6,-1 -8,-2 -3,-1 -2,-3 -8,-3 -1,0 -4,2 -4,5 0,7 12,11 20,11l0 7c0,3 5,5 8,4 3,-2 3,-6 3,-11 3,-1 5,-1 8,-3 13,-9 17,-27 6,-39 -3,-3 -9,-7 -14,-8l0 -25c2,1 15,10 15,-1 0,-2 -1,-3 -2,-4 -4,-4 -11,-5 -13,-6 0,-5 0,-10 -6,-10 -6,0 -5,5 -5,10z"/>
   <path class="fil0" d="M271 236c0,-4 0,-8 8,-8 10,0 16,18 4,18 -6,0 -12,-4 -12,-10zm-12 -1c0,6 4,13 7,16 14,14 35,5 35,-10 0,-7 -1,-11 -7,-17 -15,-15 -35,-6 -35,11z"/>
   <path class="fil0" d="M205 229c0,-14 18,-6 18,4 0,12 -18,8 -18,-4zm-12 -1c0,19 23,31 36,19 11,-12 5,-37 -19,-37 -5,0 -10,4 -12,6 -3,3 -5,7 -5,12z"/>
   <path class="fil0" d="M261 276c11,0 5,-10 3,-16 -2,-4 -3,-7 -5,-11l-22 -54c-1,-4 -5,-7 -9,-4 -4,3 -2,7 0,11l27 65c1,2 2,9 6,9z"/>
  </g>
 </g>
</svg>
