<?xml version="1.0" encoding="UTF-8"?>
<!DOCTYPE svg PUBLIC "-//W3C//DTD SVG 1.1//EN" "http://www.w3.org/Graphics/SVG/1.1/DTD/svg11.dtd">
<!-- Creator: CorelDRAW X7 -->
<svg xmlns="http://www.w3.org/2000/svg" xml:space="preserve" width="10.0002mm" height="10mm" version="1.1" style="shape-rendering:geometricPrecision; text-rendering:geometricPrecision; image-rendering:optimizeQuality; fill-rule:evenodd; clip-rule:evenodd"
viewBox="0 0 164 164"
 xmlns:xlink="http://www.w3.org/1999/xlink">
 <defs>
  <style type="text/css">
   <![CDATA[
    .fil0 {fill:black}
   ]]>
  </style>
 </defs>
 <g id="Warstwa_x0020_1">
  <metadata id="CorelCorpID_0Corel-Layer"/>
  <g id="_2020435655920">
   <path class="fil0" d="M47 51c0,-8 -1,-13 1,-20 1,-1 1,-2 1,-3 4,0 9,15 10,18 1,4 2,7 3,11 1,2 3,9 3,11 -5,-2 -10,-2 -15,1 -1,1 -1,1 -2,2 0,-7 -1,-12 -1,-20zm117 53l0 1c-1,1 -2,2 -4,2l-95 0 3 18c0,2 14,11 17,12 11,5 17,4 27,1 1,-1 1,-1 2,-1 2,0 3,-1 4,1 2,2 -2,4 -4,4 -7,3 -11,4 -19,3 -21,-1 -37,-28 -59,-28 -9,0 -15,1 -21,5 -4,2 -4,2 -7,5 -2,2 -3,5 -6,5 -1,0 -2,-1 -2,-2 0,-2 1,-3 3,-4 0,-1 0,-1 1,-2 1,-1 1,-1 2,-2 10,-9 30,-14 44,-7 8,4 8,4 12,7 -1,-5 -1,-10 -2,-15l-55 0c-3,0 -5,0 -5,-2 0,-2 1,-3 3,-3l56 0c0,-4 -5,-26 -5,-29 -4,1 -4,7 -4,10 -1,1 -1,1 -2,1 -4,0 -3,-3 -5,-6 -2,-1 -5,-3 -8,-2 -10,2 -6,9 -8,11 0,1 -3,3 -4,-2 -2,-6 -10,-9 -15,-3 -4,5 1,10 -5,10 -2,0 -3,-5 -3,-9l0 -4 0 0c0,-12 5,-23 11,-32 19,-27 56,-32 82,-13l4 3c3,3 6,7 9,11 1,1 2,2 2,4 3,4 7,14 7,19 0,2 -2,3 -3,3 -2,-1 -2,-3 -2,-4 -3,-7 -12,-7 -16,-1 -2,3 1,8 -3,8 -1,0 -1,0 -2,-1 -1,0 0,0 -1,-1 -2,-8 -11,-8 -15,-3 -1,0 -1,1 -1,3 -1,2 0,1 0,3 0,2 -2,3 -4,3 -2,-1 -1,-8 -9,-9 0,1 1,3 1,4l4 26 97 0c1,0 2,1 3,2zm-122 -58c0,4 0,24 1,26 -2,0 -7,-3 -13,0 -2,1 -2,2 -3,3 0,-4 0,-8 0,-11 0,-4 2,-7 -3,-7 -3,0 -3,14 -3,16 0,2 1,2 1,3 -7,-3 -11,-2 -17,2 0,-17 11,-33 24,-42 1,0 1,-1 2,-1 0,0 -6,9 -6,13 0,1 2,2 3,2 2,0 3,-3 3,-5 3,-6 7,-11 12,-15 -1,5 -1,11 -1,16zm15 -18c2,1 4,2 6,3 1,1 3,2 4,3 2,1 3,2 5,4l3 4c4,5 10,18 11,23 -4,-2 -9,-2 -12,0 -2,1 -3,2 -4,3l-3 -11c-1,-3 -1,-6 -2,-10l-4 -10c0,-1 -1,-3 -2,-4l-2 -3c0,-1 0,-1 0,-2zm11 0c2,1 6,2 7,2 3,1 4,2 7,3 4,2 7,4 10,7l9 9c1,2 6,9 6,12 -4,-2 -11,-1 -15,3 -1,1 0,0 -1,1 -3,-12 -9,-22 -16,-31 -1,-1 -2,-1 -2,-2l-5 -4z"/>
   <path class="fil0" d="M138 35l-2 0c-3,0 -7,-4 -7,-7 0,-4 0,-5 2,-7 5,-5 15,-3 15,6 0,4 -4,8 -8,8zm-14 -8c0,14 20,18 25,5 3,-5 2,-11 -2,-15 -4,-4 -10,-5 -15,-3 -2,1 -3,2 -4,3 -2,2 -4,5 -4,10z"/>
   <path class="fil0" d="M104 116c0,2 2,3 3,3l41 0c3,0 3,-5 0,-5l-41 0c-1,0 -3,1 -3,2z"/>
   <path class="fil0" d="M128 134c0,4 3,3 7,2 1,0 2,0 4,0 7,-1 14,1 19,5 1,1 2,2 3,2 1,0 2,-1 3,-2l0 -1c0,-1 -1,-1 -2,-2 -9,-7 -18,-9 -29,-7 -2,0 -5,1 -5,3z"/>
   <path class="fil0" d="M91 126c0,2 1,3 4,3l15 0c5,0 5,-6 1,-6l-18 0c-1,0 -2,1 -2,3z"/>
   <path class="fil0" d="M135 3c0,4 -1,8 2,8 4,0 3,-5 3,-8 0,-2 -1,-3 -3,-3l0 0c-1,0 -2,1 -2,3z"/>
   <path class="fil0" d="M153 26c0,4 3,3 8,3 2,0 3,-1 3,-2l0 -1c0,-1 -1,-2 -3,-2 -2,0 -8,-1 -8,2z"/>
   <path class="fil0" d="M135 45l0 6c0,3 5,4 5,-1 0,-2 0,-7 -3,-7 -1,0 -2,1 -2,2z"/>
   <path class="fil0" d="M111 26c0,4 2,3 8,3 2,0 4,-5 -1,-5 -2,0 -7,-1 -7,2z"/>
   <path class="fil0" d="M148 13c0,2 1,3 3,3 1,0 6,-4 6,-6 0,-2 -1,-3 -3,-3 -1,0 -6,5 -6,6z"/>
   <path class="fil0" d="M118 9c0,2 1,3 2,4 1,1 2,3 4,3 2,0 3,-1 3,-3 0,-1 -5,-6 -7,-6 -1,0 -2,1 -2,2z"/>
   <path class="fil0" d="M118 43c0,3 0,3 3,3 1,0 6,-5 6,-6 0,-1 -2,-3 -3,-3 -1,0 -3,2 -3,3 -1,0 -3,2 -3,3z"/>
   <path class="fil0" d="M148 39c0,3 5,7 6,7 2,0 3,-1 3,-2 0,-2 -6,-7 -7,-7 -1,0 -2,1 -2,2z"/>
   <path class="fil0" d="M42 152c0,3 4,4 4,-1 0,-2 -4,-2 -4,1z"/>
   <path class="fil0" d="M9 138c0,2 1,3 2,3 1,0 2,-1 2,-2 0,-4 -4,-4 -4,-1z"/>
   <path class="fil0" d="M142 148c0,3 5,4 5,-1 0,-2 -5,-2 -5,1z"/>
   <path class="fil0" d="M52 136c3,0 3,-1 3,-3 0,-2 -3,-2 -4,-1 -2,2 -1,4 1,4z"/>
   <path class="fil0" d="M114 161c0,2 0,2 2,3l1 0c1,0 1,-1 1,-3 0,-3 -4,-3 -4,0z"/>
  </g>
 </g>
</svg>
