<?xml version="1.0" encoding="UTF-8"?>
<!DOCTYPE svg PUBLIC "-//W3C//DTD SVG 1.1//EN" "http://www.w3.org/Graphics/SVG/1.1/DTD/svg11.dtd">
<!-- Creator: CorelDRAW X7 -->
<svg xmlns="http://www.w3.org/2000/svg" xml:space="preserve" width="10.1964mm" height="10mm" version="1.1" style="shape-rendering:geometricPrecision; text-rendering:geometricPrecision; image-rendering:optimizeQuality; fill-rule:evenodd; clip-rule:evenodd"
viewBox="0 0 171 167"
 xmlns:xlink="http://www.w3.org/1999/xlink">
 <defs>
  <style type="text/css">
   <![CDATA[
    .fil0 {fill:black}
   ]]>
  </style>
 </defs>
 <g id="Warstwa_x0020_1">
  <metadata id="CorelCorpID_0Corel-Layer"/>
  <g id="_2020198526000">
   <path class="fil0" d="M5 150l0 -2 60 0c0,1 0,3 1,4 1,1 2,2 3,3 2,1 4,3 8,3l17 0c6,0 11,-4 12,-10l60 0c0,5 -1,7 -3,10 -2,2 -5,4 -8,4l-139 0c-6,0 -11,-5 -11,-12zm166 -5l0 6c-1,3 -1,5 -2,7 -3,6 -8,9 -16,9l-135 0c-10,0 -18,-7 -18,-15l0 -7c0,-3 1,-2 7,-2l0 -88c0,-4 1,-9 4,-11 5,-3 7,-3 14,-3 -1,-2 -1,-3 -1,-5 0,-6 7,-9 12,-12l40 -21c11,-6 14,-2 23,2 5,3 2,6 0,6 -1,0 -6,-3 -7,-3 -8,-4 -10,-3 -19,2l-14 8c-1,0 -2,1 -3,1l-11 6c-1,1 -2,1 -3,2 -3,1 -5,2 -8,4 -2,1 -5,2 -5,5 0,5 1,5 6,7l20 11c1,0 2,0 2,1 1,0 2,1 3,1l13 7c10,5 10,7 20,2 2,0 3,-1 5,-2 1,-1 4,-2 5,-2 -3,-5 -20,-22 -20,-24 0,-2 2,-3 3,-3 2,1 5,5 6,7l9 10c1,1 1,1 2,2l4 5 32 -17c4,-2 4,-7 -1,-9l-32 -17c-3,-2 0,-5 2,-5 1,0 11,6 13,7l11 6c1,0 2,1 3,1 1,1 2,1 3,2 0,0 1,1 2,1 6,3 9,9 6,14 7,0 9,0 13,3 4,2 5,7 5,11l0 88c3,0 7,-1 7,2zm-101 3l31 0c-2,2 -3,4 -6,4l-19 0c-3,0 -5,-2 -6,-4zm33 -41c0,-2 2,-5 3,-7 1,0 0,0 1,0 0,1 3,5 3,6 0,4 -7,4 -7,1zm6 -23l0 -21 11 -6c0,12 1,21 -11,27zm-58 -27l24 13c8,5 13,4 21,0l8 -4 0 20c-8,2 -10,3 -19,3 -8,0 -21,-3 -26,-7 -9,-6 -8,-14 -8,-25zm-33 0l0 75c0,2 1,4 3,4l13 0c4,0 4,-5 -1,-5l-9 0 0 -73 22 0c0,10 -1,18 7,26 3,3 6,4 10,6 1,0 2,1 4,1 3,1 9,3 13,3l15 -1c3,0 8,-1 9,-2 0,4 -1,4 -4,9 -1,3 -3,6 -1,10 3,5 12,5 15,1 5,-7 -5,-15 -5,-18 0,-4 0,-3 1,-4 4,-2 6,-2 9,-7 7,-8 6,-14 6,-24l22 0 0 73 -102 0c-4,0 -5,5 -1,5l105 0c3,0 3,-2 3,-4l0 -75c0,-6 -3,-4 -9,-4 -5,0 -9,0 -14,0 1,-1 4,-3 6,-4 8,-4 4,-3 17,-3 4,0 7,4 7,7l0 90 -147 0 0 -90c0,-3 3,-7 6,-7 15,0 9,-1 21,5l3 2 -21 0c-2,0 -3,2 -3,4z"/>
   <path class="fil0" d="M31 122c0,2 1,3 3,3l49 0c4,0 5,-6 0,-6l-49 0c-2,0 -3,1 -3,3z"/>
   <path class="fil0" d="M31 111c0,1 0,3 2,3l34 0c4,0 3,-5 0,-5l-34 0c-1,0 -2,1 -2,2z"/>
  </g>
 </g>
</svg>
