<?xml version="1.0" encoding="UTF-8"?>
<!DOCTYPE svg PUBLIC "-//W3C//DTD SVG 1.1//EN" "http://www.w3.org/Graphics/SVG/1.1/DTD/svg11.dtd">
<!-- Creator: CorelDRAW X7 -->
<svg xmlns="http://www.w3.org/2000/svg" xml:space="preserve" width="10.0273mm" height="10mm" version="1.1" style="shape-rendering:geometricPrecision; text-rendering:geometricPrecision; image-rendering:optimizeQuality; fill-rule:evenodd; clip-rule:evenodd"
viewBox="0 0 365 364"
 xmlns:xlink="http://www.w3.org/1999/xlink">
 <defs>
  <style type="text/css">
   <![CDATA[
    .fil0 {fill:black}
   ]]>
  </style>
 </defs>
 <g id="Warstwa_x0020_1">
  <metadata id="CorelCorpID_0Corel-Layer"/>
  <g id="_2020439666080">
   <path class="fil0" d="M169 245l0 48 -25 0c1,-3 4,-5 5,-9l6 -38c1,-10 7,-43 8,-51 4,0 15,3 20,4 20,4 16,0 16,42l-25 0c-2,0 -5,2 -5,4zm-18 -53c-1,10 -12,73 -14,86 0,4 -1,9 -6,11 -4,1 -9,-3 -10,-7l8 -75c3,-27 -1,-22 9,-18 3,1 9,3 13,3zm-27 -113c8,0 17,2 22,2 10,0 32,0 39,3 2,1 2,2 4,4l9 7c10,9 18,15 31,15 4,0 8,-2 12,-3 6,-2 17,-8 17,2 0,3 -6,4 -9,5 -3,1 -6,2 -10,4 -12,4 -21,6 -32,-2 -3,-2 -5,-3 -8,-5 -2,-2 -16,-12 -17,-12 -6,0 -8,0 -8,15 0,6 0,12 0,19 0,7 0,11 0,18 0,15 -3,12 20,18 39,10 32,10 32,72l-15 0 0 -33c0,-19 -21,-19 -40,-23 -44,-9 -41,-5 -41,-52 0,-10 0,-21 0,-31 -1,-10 -8,-9 -16,1 -7,8 -14,13 -19,19 -5,6 -8,8 -10,14l-12 35c-2,4 -7,4 -9,1 -3,-3 -1,-8 0,-11 2,-5 7,-28 9,-31l11 -12c2,-2 2,-3 4,-5 5,-6 20,-24 25,-29 2,-1 8,-5 11,-5zm-73 88c0,23 28,25 34,6l7 -22c2,-5 3,-8 4,-12 1,-4 13,-15 17,-19 1,-2 1,-3 3,-4 0,13 -1,42 2,53 2,4 2,5 1,10 -1,7 -1,13 -2,20 -2,16 -8,74 -8,85 0,3 3,7 4,9 -6,0 -12,0 -18,0 -7,0 -13,-1 -13,6l0 50 -76 0c-8,0 -8,11 0,11l82 0c2,0 6,-2 6,-4l0 -51 80 0c4,0 7,-1 7,-6l0 -47 82 0c4,0 6,-3 6,-6l0 -49 88 0c11,0 10,-12 2,-12l-97 0c-3,0 -5,3 -5,6l0 49 -20 0 0 -45c0,-15 -7,-25 -16,-31 -6,-4 -28,-9 -36,-11 0,-14 0,-25 0,-39 25,17 29,25 66,11 4,-2 8,-3 12,-5 10,-7 9,-29 -11,-29 -3,0 -9,2 -12,3 -22,8 -19,2 -44,-17 -8,-5 -15,-7 -25,-7 -13,0 -35,-3 -49,-3 -16,0 -29,23 -40,34l-20 23c-3,4 -6,20 -7,25 -1,5 -4,13 -4,18z"/>
   <path class="fil0" d="M294 235c0,3 2,6 6,6 4,0 6,-5 9,-7l0 118c0,15 13,15 13,1l0 -119c3,2 6,7 9,7 4,0 6,-3 6,-6 0,-5 -18,-22 -21,-22 -4,0 -22,18 -22,22z"/>
   <path class="fil0" d="M134 32c0,-7 6,-15 12,-18 24,-11 41,22 19,36 -8,5 -20,3 -27,-6 -2,-3 -4,-8 -4,-12zm-12 0c0,9 5,18 10,23 31,30 75,-16 45,-45 -21,-22 -55,-5 -55,22z"/>
   <path class="fil0" d="M219 283l0 64c0,7 -1,13 3,16 0,0 2,1 2,1 9,0 7,-8 7,-15l0 -67c3,2 5,6 7,8 4,2 9,-2 9,-5 0,-4 -18,-22 -22,-22 -4,0 -17,13 -20,17 -4,5 0,10 3,10 5,1 8,-5 11,-7z"/>
   <path class="fil0" d="M124 342c7,0 7,-4 11,-7 0,7 -1,24 3,27 0,1 2,2 3,2 6,0 6,-4 6,-11 0,-6 0,-12 0,-18 3,2 6,7 10,7 4,0 6,-2 6,-5 0,-4 -7,-10 -11,-14 -2,-2 -4,-4 -6,-6 -7,-7 -12,2 -21,11 -1,2 -5,4 -5,7 -1,3 2,7 4,7z"/>
  </g>
 </g>
</svg>
