<?xml version="1.0" encoding="UTF-8"?>
<!DOCTYPE svg PUBLIC "-//W3C//DTD SVG 1.1//EN" "http://www.w3.org/Graphics/SVG/1.1/DTD/svg11.dtd">
<!-- Creator: CorelDRAW X7 -->
<svg xmlns="http://www.w3.org/2000/svg" xml:space="preserve" width="9.9945mm" height="10mm" version="1.1" style="shape-rendering:geometricPrecision; text-rendering:geometricPrecision; image-rendering:optimizeQuality; fill-rule:evenodd; clip-rule:evenodd"
viewBox="0 0 310 310"
 xmlns:xlink="http://www.w3.org/1999/xlink">
 <defs>
  <style type="text/css">
   <![CDATA[
    .fil0 {fill:black}
   ]]>
  </style>
 </defs>
 <g id="Warstwa_x0020_1">
  <metadata id="CorelCorpID_0Corel-Layer"/>
  <g id="_2020433155648">
   <path class="fil0" d="M12 198l29 -7c0,4 10,46 11,51l10 50 -30 6c0,-4 -14,-67 -15,-75l-5 -25zm82 73c-15,0 -17,3 -25,3 0,-3 -5,-26 -6,-32 -1,-5 -7,-29 -7,-32 6,-3 9,-7 18,-9 29,-9 43,4 65,15 7,3 11,7 20,6 8,0 15,-4 21,-7 3,-2 33,-19 38,-19 14,0 23,12 15,17l-35 20c-38,23 -36,24 -77,13 -5,-1 -10,-2 -15,-3 -3,-1 -12,-3 -15,-4 -1,2 -3,8 -3,11 5,0 12,2 16,3 5,1 11,3 16,4 34,7 37,13 73,-9 4,-2 8,-4 12,-7l24 -13c2,-2 3,-3 5,-4 6,-3 13,-7 13,-17 3,0 6,-3 9,-4l19 -10c3,-1 7,-4 11,-4 9,0 17,8 11,13l-101 68c-4,3 -7,4 -13,6 -3,2 -12,3 -17,3 -14,-2 -37,-4 -53,-6l-19 -2zm149 -73c-4,-6 -11,-11 -19,-12 -10,-1 -17,2 -24,6 -6,4 -14,7 -20,10 -27,14 -20,13 -44,0 -19,-10 -24,-15 -48,-15 -7,0 -14,2 -19,4 -3,1 -5,2 -8,4 -3,1 -5,3 -7,4 -6,-25 1,-21 -39,-13 -3,1 -6,1 -9,2 -1,0 -2,1 -4,1 -4,3 -1,11 1,20l15 74c2,6 2,10 4,15 3,15 2,14 31,7 4,-1 8,-2 12,-2 4,-1 9,-1 9,-7 0,-2 -2,-9 -2,-11 3,0 6,-1 9,-2 15,-3 14,-1 29,0 18,2 46,6 63,6 12,0 22,-6 31,-12l93 -62c9,-6 13,-8 13,-19 0,-9 -12,-18 -20,-18 -13,0 -13,2 -27,9 -7,4 -14,7 -20,11z"/>
   <path class="fil0" d="M289 83c0,-7 10,-7 10,0 0,6 -10,6 -10,0zm-138 24c-2,-1 -2,-4 -3,-6 -1,-3 -1,-5 -2,-8l-12 -37c-1,-5 -6,-7 -11,1 -2,2 -3,4 -4,7l-7 11c-1,1 -1,3 -3,3l-32 0 0 10 37 0c2,0 3,-1 4,-3l8 -12c0,-1 1,-1 1,-2 1,-1 0,0 1,-1 0,3 1,5 2,8 1,2 1,5 2,7 2,6 3,11 5,16 2,6 3,10 5,16 2,6 2,12 8,12 4,0 5,-3 6,-6l25 -64c3,3 15,26 17,28 3,2 38,1 44,1 -6,12 -7,16 -17,29 -6,9 -13,17 -21,25 -13,14 -16,16 -29,27 -2,2 -4,3 -7,5 -2,2 -4,4 -6,5 -9,7 -5,8 -23,-6l-22 -19c-4,-4 -19,-19 -23,-25 -1,-1 -2,-2 -3,-3 -6,-7 -13,-17 -17,-24 -11,-22 -19,-47 -4,-70 19,-27 50,-27 75,-8 8,6 9,9 15,4l15 -10c11,-6 24,-9 37,-6 11,3 20,10 27,20 10,14 10,29 6,46l-40 0 -16 -28c-5,-8 -4,-8 -10,-8 -3,0 -4,4 -5,6l-16 42c-2,3 -7,15 -7,17zm4 89c4,0 30,-21 33,-24 2,-2 2,-2 4,-3l20 -19c2,-3 8,-8 12,-14 12,-15 17,-21 26,-39 1,-2 3,-6 3,-9l26 0c2,3 3,5 5,7 10,7 26,4 26,-13 0,-11 -14,-20 -25,-11 -3,1 -4,4 -6,7l-23 0c5,-21 1,-40 -9,-53 -5,-7 -9,-12 -17,-17 -38,-23 -73,10 -75,10 -1,0 -7,-5 -9,-7 -22,-12 -52,-17 -72,1 -8,7 -15,15 -19,26 -7,22 -3,42 7,63 5,11 14,24 22,33l33 34c2,1 3,3 5,5 2,1 2,1 4,2 3,3 25,21 29,21z"/>
   <polygon class="fil0" points="0,88 41,88 41,78 0,78 "/>
   <path class="fil0" d="M23 205c0,4 2,7 2,11 3,0 8,-2 10,-2 0,-3 -1,-8 -1,-10 -4,0 -7,1 -11,1z"/>
  </g>
 </g>
</svg>
