<?xml version="1.0" encoding="UTF-8"?>
<!DOCTYPE svg PUBLIC "-//W3C//DTD SVG 1.1//EN" "http://www.w3.org/Graphics/SVG/1.1/DTD/svg11.dtd">
<!-- Creator: CorelDRAW X7 -->
<svg xmlns="http://www.w3.org/2000/svg" xml:space="preserve" width="10.7546mm" height="10mm" version="1.1" style="shape-rendering:geometricPrecision; text-rendering:geometricPrecision; image-rendering:optimizeQuality; fill-rule:evenodd; clip-rule:evenodd"
viewBox="0 0 190 176"
 xmlns:xlink="http://www.w3.org/1999/xlink">
 <defs>
  <style type="text/css">
   <![CDATA[
    .fil0 {fill:black}
   ]]>
  </style>
 </defs>
 <g id="Warstwa_x0020_1">
  <metadata id="CorelCorpID_0Corel-Layer"/>
  <g id="_2020435652944">
   <path class="fil0" d="M152 144c-3,0 -5,-2 -8,-5 -1,-1 -2,-1 -3,-2l-10 -8c-6,-6 -11,-15 -11,-24l0 -29c12,0 21,-1 29,-9 1,-1 2,-2 3,-3 2,0 1,2 5,5 8,6 17,7 27,7l0 26c0,8 -2,15 -6,21 -2,4 -6,7 -9,10l-13 10c-1,1 -2,1 -4,1zm38 -70l0 32c0,5 -3,12 -5,16 -1,2 -2,5 -4,7 0,1 -1,1 -2,2 -3,4 -3,4 -8,8l-11 8c-8,6 -14,1 -18,-2 -1,3 -6,21 -8,24 -5,10 -20,10 -25,-1 -1,-3 -12,-49 -12,-53l0 0c0,4 -10,49 -11,53 -5,10 -18,10 -23,4 -3,-3 -4,-6 -5,-10 -1,-2 -6,-20 -6,-21 0,-1 1,-3 2,-3 3,0 3,1 4,3 0,2 0,4 1,5l6 19c3,7 12,7 15,1 2,-3 9,-39 10,-43 1,-6 1,-14 7,-14 7,0 7,8 8,14 2,10 5,24 7,35 1,2 2,6 2,8 2,3 4,4 6,4 9,0 9,-4 12,-12l5 -17c-1,-1 -3,-2 -4,-3 -2,-1 -3,-2 -4,-3 -9,-8 -14,-19 -14,-32l0 -28c0,-2 0,-4 2,-4 1,-1 10,-1 13,-1 5,-1 10,-2 14,-6 3,-3 8,-10 14,-2 1,1 4,4 5,4 1,-1 1,-3 1,-5 0,-2 0,-2 0,-4 -1,-10 -7,-21 -15,-27 -10,-6 -12,-5 -14,-6 -3,-2 -1,-5 1,-5 2,0 6,1 7,2 7,2 8,4 13,8 1,0 1,0 1,1 1,1 2,1 2,2 6,6 11,17 11,27 0,5 -1,7 -1,9 2,1 8,2 12,2 2,0 4,0 6,0 1,1 3,3 3,4z"/>
   <path class="fil0" d="M34 25c4,-1 11,-9 11,-13l1 0c0,4 8,12 11,13 0,1 -10,8 -11,14 -1,0 -1,0 -1,-1 -4,-9 -10,-11 -11,-13zm0 8c0,2 -18,19 -4,46l3 6c8,12 10,26 14,39 1,5 1,8 4,8 5,0 2,-7 1,-11 -3,-12 -6,-25 -11,-35 -6,-11 -10,-12 -10,-29 0,-6 4,-17 7,-19 4,2 2,13 8,13 1,0 2,-1 3,-2 2,-3 1,-12 11,-18 1,-1 2,-1 3,-2 3,-2 3,-3 2,-6 6,0 12,2 17,4 5,3 9,5 16,5 8,0 12,-5 21,-7 4,-1 7,-1 7,-4 0,-7 -17,1 -20,3 -10,6 -17,0 -23,-3 -14,-6 -24,-1 -26,-3 -4,-3 -6,-8 -7,-13 0,-1 -1,-3 -1,-3 -1,-2 -6,-4 -7,2 -2,6 -3,10 -8,14 -3,2 -7,4 -7,5 -2,2 -2,5 2,7 2,1 4,2 5,3z"/>
   <path class="fil0" d="M125 85c0,16 -2,29 8,40l2 2c0,0 0,0 0,0 1,1 2,1 2,2l12 9c4,3 6,0 12,-4 6,-5 10,-8 14,-14 2,-3 4,-8 4,-12 0,-1 -2,-2 -4,-2 -3,2 -1,6 -7,14 -2,2 -12,11 -16,13l-7 -5c-3,-3 -7,-6 -10,-10 -1,-1 -1,-2 -2,-4 -4,-7 -3,-20 -3,-29 4,0 10,-2 12,-2 2,-1 3,-2 5,-2 7,-3 3,-4 10,0 2,0 3,1 5,2 3,0 8,2 12,2 0,5 -1,13 3,13 2,0 3,-1 3,-3 0,-13 1,-14 -6,-15 -18,-3 -19,-10 -25,-7 -4,2 -7,4 -11,5 -8,2 -13,1 -13,7z"/>
   <path class="fil0" d="M68 55c2,0 2,-2 3,-3 2,1 1,3 3,3 0,2 -2,2 -2,4l-1 0c-1,-1 -1,-1 -2,-2 -2,-1 -1,-1 -1,-2zm-8 1c0,3 3,3 6,6 2,3 1,6 3,7 2,2 5,1 6,-2 0,-2 0,-3 1,-5 1,-1 2,-2 4,-3 3,-2 4,-5 0,-7 -8,-4 -3,-10 -9,-10 -5,0 -1,6 -8,10 -2,1 -3,2 -3,4z"/>
   <path class="fil0" d="M11 109c0,-2 -2,-3 -3,-4 0,-1 3,-4 3,-4 1,1 2,3 4,4 0,0 -4,3 -4,4zm-11 -4c0,4 3,2 6,6 2,3 1,8 5,8 6,0 2,-7 8,-10 3,-2 4,-2 4,-4 0,-5 -6,-1 -8,-11 -1,-1 0,-1 -1,-2 0,-1 -2,-2 -2,-2 -6,0 -2,7 -9,11 -1,1 -3,1 -3,4z"/>
   <path class="fil0" d="M151 107l-1 0c0,-1 -1,-1 -2,-2 0,-1 -1,-2 -2,-3 -1,-2 -2,-4 -4,-4 -2,0 -3,1 -3,2 0,2 6,10 8,12 4,5 5,3 9,-2 2,-2 13,-16 13,-18 0,-3 -2,-4 -5,-2 -1,1 -1,2 -2,3 -1,2 -2,3 -4,5 -1,1 -2,3 -3,4 -1,1 -4,4 -4,5z"/>
  </g>
 </g>
</svg>
