<?xml version="1.0" encoding="UTF-8"?>
<!DOCTYPE svg PUBLIC "-//W3C//DTD SVG 1.1//EN" "http://www.w3.org/Graphics/SVG/1.1/DTD/svg11.dtd">
<!-- Creator: CorelDRAW X7 -->
<svg xmlns="http://www.w3.org/2000/svg" xml:space="preserve" width="10.2285mm" height="10mm" version="1.1" style="shape-rendering:geometricPrecision; text-rendering:geometricPrecision; image-rendering:optimizeQuality; fill-rule:evenodd; clip-rule:evenodd"
viewBox="0 0 2979 2912"
 xmlns:xlink="http://www.w3.org/1999/xlink">
 <defs>
  <style type="text/css">
   <![CDATA[
    .fil0 {fill:black}
   ]]>
  </style>
 </defs>
 <g id="Warstwa_x0020_1">
  <metadata id="CorelCorpID_0Corel-Layer"/>
  <g id="_2020198509680">
   <path class="fil0" d="M272 879c0,-51 214,-39 303,-122 96,-88 37,-212 71,-359 179,0 320,131 444,-83 47,-83 17,-61 95,-177 141,33 210,292 465,98 37,-28 99,-88 143,-98 67,99 89,175 119,216 116,158 262,44 420,44 33,142 -22,271 68,356 90,87 306,74 306,125 0,53 -102,175 -102,298 0,123 235,231 235,279 0,58 -235,134 -235,298 0,57 27,102 47,143 86,179 79,149 -98,192 -295,72 -171,208 -221,425 -131,0 -258,-83 -367,-12 -70,46 -100,164 -172,272 -141,-33 -210,-292 -465,-98 -37,28 -99,87 -143,98 -9,-14 -17,-21 -27,-37 -25,-40 -46,-102 -68,-140 -65,-113 -99,-121 -203,-121 -86,0 -145,38 -241,38 -15,-66 -13,-116 -12,-197 0,-71 -18,-124 -56,-160 -90,-87 -306,-73 -306,-125 0,-17 19,-56 26,-69 56,-113 117,-218 39,-318l-63 -64c-180,-160 -180,-90 0,-250 148,-132 111,-206 24,-382 -7,-13 -26,-52 -26,-70zm387 -621c-82,0 -137,57 -154,125 -21,89 1,231 -20,266 -44,74 -490,9 -308,370 13,24 21,44 32,69 11,24 25,42 25,76 0,61 -234,140 -234,298 0,134 234,230 234,285 0,86 -181,274 -59,395 25,24 53,38 89,51 48,16 198,39 219,66 25,34 1,166 21,264 53,251 373,50 435,97 54,41 118,399 346,260 208,-126 152,-195 305,-75 87,68 215,183 326,35 54,-72 92,-191 120,-217 63,-59 365,156 436,-95 15,-52 6,-240 21,-265 27,-46 224,-41 306,-118 153,-142 -124,-357 -35,-434 10,-9 9,-6 18,-14l95 -76c291,-225 -133,-390 -133,-457 0,-31 11,-49 23,-71 71,-141 149,-303 -53,-374 -48,-17 -198,-39 -219,-67 -18,-24 -11,-87 -11,-128 0,-48 -1,-93 -10,-136 -33,-159 -180,-134 -298,-108 -129,29 -137,48 -195,-95 -16,-39 -39,-79 -62,-110 -55,-74 -133,-101 -226,-44 -220,135 -146,209 -351,39 -21,-17 -29,-22 -53,-36 -232,-141 -291,202 -347,254 -38,36 -172,-30 -283,-30z"/>
   <path class="fil0" d="M1951 917c-45,14 -21,-1 -77,56l-478 478c-93,92 -181,180 -273,273 -47,46 -89,89 -136,136 -96,94 4,146 42,137 37,-8 115,-98 145,-128l817 -817c38,-37 65,-89 9,-126 -24,-16 -32,-14 -49,-9z"/>
   <path class="fil0" d="M1052 1126c0,-108 113,-134 169,-80 43,41 47,169 -74,169 -59,0 -95,-50 -95,-89zm-140 -12c0,133 98,240 254,240 113,0 222,-108 222,-221 0,-53 0,-73 -24,-123 -104,-216 -452,-147 -452,104z"/>
   <path class="fil0" d="M1825 1893c-121,0 -137,-196 6,-196 127,0 127,196 -6,196zm-235 -114c0,71 16,140 73,187 234,198 534,-91 339,-333 -121,-150 -412,-66 -412,146z"/>
  </g>
 </g>
</svg>
