<?xml version="1.0" encoding="UTF-8"?>
<!DOCTYPE svg PUBLIC "-//W3C//DTD SVG 1.1//EN" "http://www.w3.org/Graphics/SVG/1.1/DTD/svg11.dtd">
<!-- Creator: CorelDRAW X7 -->
<svg xmlns="http://www.w3.org/2000/svg" xml:space="preserve" width="9.9949mm" height="10mm" version="1.1" style="shape-rendering:geometricPrecision; text-rendering:geometricPrecision; image-rendering:optimizeQuality; fill-rule:evenodd; clip-rule:evenodd"
viewBox="0 0 171 172"
 xmlns:xlink="http://www.w3.org/1999/xlink">
 <defs>
  <style type="text/css">
   <![CDATA[
    .fil0 {fill:black}
   ]]>
  </style>
 </defs>
 <g id="Warstwa_x0020_1">
  <metadata id="CorelCorpID_0Corel-Layer"/>
  <g id="_2020437471472">
   <path class="fil0" d="M53 161c-1,-2 1,-6 5,-6 3,0 5,2 6,5 0,7 -10,8 -11,1zm-47 -153c0,-1 1,-2 3,-2l99 0c4,0 4,5 0,5l-99 0c-2,0 -3,-1 -3,-3zm-6 0c0,4 2,6 6,8l0 120c0,3 -1,5 2,5l47 0 0 9c-2,0 -4,1 -5,3 -4,4 -4,11 0,15 4,5 12,5 16,0 6,-6 3,-16 -5,-18l0 -9 25 0c3,0 3,-5 0,-5l-75 0 0 -119 94 0 0 58c0,1 1,2 3,2 3,0 3,-2 3,-5l0 -56c3,-2 5,-3 5,-8 0,-4 -4,-8 -7,-8l-101 0c-4,0 -8,4 -8,8z"/>
   <path class="fil0" d="M94 91c13,0 23,-2 33,-10 1,-1 2,-1 3,-2 1,1 2,1 3,2 1,1 2,2 4,3 8,6 17,7 29,7 0,5 -1,22 -2,26 -2,13 -6,25 -14,34 -1,2 -2,3 -3,4 -2,2 -5,4 -8,6 -9,5 -8,5 -13,3 -11,-6 -20,-14 -24,-25 -1,-4 -3,-7 -4,-11 -1,-7 -3,-16 -3,-24 0,-2 -1,-4 -1,-6 0,-3 0,-4 0,-7zm-5 -2c0,20 2,48 15,64 5,6 9,9 16,14 10,6 10,6 20,0 4,-2 11,-7 13,-10 1,-1 2,-3 3,-4 1,-2 2,-3 3,-4 1,-2 2,-3 3,-5 8,-16 9,-35 9,-55 0,-4 -2,-3 -7,-4 -1,0 -3,0 -4,0 -7,0 -16,-3 -22,-7l-5 -5c-4,-3 -5,1 -9,3 -7,6 -15,9 -24,9l-7 1c-3,0 -4,0 -4,3z"/>
   <path class="fil0" d="M127 140l-15 -15 4 -5c4,3 9,10 11,10 2,0 10,-8 12,-10l10 -11 5 4 -27 27zm0 -17c-3,-2 -8,-10 -11,-10 -2,0 -2,2 -3,3 -11,10 -11,6 3,20l8 8c4,5 5,2 12,-5l21 -21c6,-6 5,-5 -4,-13 -5,-5 -6,-2 -15,7l-11 11z"/>
   <path class="fil0" d="M55 22l0 7c-3,0 -10,2 -12,3 -1,-2 -2,-3 -3,-5 -3,-6 -7,-2 -5,1 0,2 2,5 2,6 -3,2 -7,6 -8,6 -2,-1 -5,-6 -7,-6 -1,0 -5,3 0,7 1,1 2,2 3,3l-2 3c0,2 1,3 3,3 2,0 4,-5 11,-9 15,-10 35,-8 47,3 2,2 4,6 6,6 1,0 3,-1 3,-2 0,-2 -1,-3 -2,-4 1,-1 2,-2 3,-3 6,-4 1,-7 0,-7 -2,0 -5,5 -7,6 -3,-3 -3,-3 -8,-6 0,-2 3,-5 3,-7 0,-3 -3,-4 -5,-2 -1,1 -3,6 -3,7 -3,-1 -10,-3 -13,-3 0,-5 1,-10 -3,-10 -2,0 -3,1 -3,3z"/>
   <path class="fil0" d="M58 64c-7,0 -17,-4 -21,-10 -3,-4 -6,-1 -6,1 0,4 14,14 25,14 8,0 13,0 19,-4 3,-2 10,-7 10,-10 0,-3 -3,-4 -5,-1 -5,5 -14,10 -22,10z"/>
   <path class="fil0" d="M53 49c0,-5 6,-7 9,-4 5,5 -3,13 -8,8 -1,-1 -1,-3 -1,-4zm-6 -1c0,11 11,16 19,9 7,-5 3,-19 -8,-19 -6,0 -11,5 -11,10z"/>
   <path class="fil0" d="M62 86c0,8 10,14 17,9 5,-2 3,-6 0,-6 -2,0 -4,2 -6,2 -7,0 -7,-11 0,-11 3,0 3,3 7,3 0,0 4,-2 0,-6 -4,-4 -12,-3 -15,1 -2,2 -3,5 -3,8z"/>
   <path class="fil0" d="M29 85c0,9 8,13 8,6 0,-1 -5,-5 -1,-9 2,-2 8,-3 9,3 1,4 -2,3 -2,7 0,1 1,2 3,2 3,0 5,-4 5,-7 0,-4 0,-6 -3,-9 -7,-7 -19,-2 -19,7z"/>
   <path class="fil0" d="M46 110c2,0 2,-2 4,-2 3,0 4,5 0,5 -2,0 -3,-1 -4,-1 -4,0 -5,7 4,7 8,0 11,-10 6,-14 -4,-4 -10,-3 -12,0 -2,2 -1,5 2,5z"/>
   <path class="fil0" d="M64 110c0,3 0,5 2,7 2,1 5,0 5,-2 0,-2 -2,-3 -2,-4 0,-4 6,-4 6,0 0,1 -2,2 -2,3 0,5 7,5 7,-4 0,-6 -8,-10 -14,-5 -1,1 -2,3 -2,5z"/>
   <path class="fil0" d="M19 110c0,12 17,12 17,0 0,-6 -7,-8 -7,-4 0,3 1,3 1,5 0,3 -5,3 -5,0 0,-2 2,-3 2,-4 0,-3 -3,-4 -5,-3 -1,1 -3,4 -3,6z"/>
   <path class="fil0" d="M19 127c0,4 6,4 6,0 0,-3 -6,-3 -6,0z"/>
   <path class="fil0" d="M30 127c0,4 6,4 6,0 0,-3 -6,-3 -6,0z"/>
   <path class="fil0" d="M41 127c0,4 6,4 6,0 0,-3 -6,-3 -6,0z"/>
   <path class="fil0" d="M53 127c0,4 5,4 5,0 0,-3 -5,-3 -5,0z"/>
   <path class="fil0" d="M64 127c0,4 5,4 5,0 0,-3 -5,-3 -5,0z"/>
   <path class="fil0" d="M75 127c0,4 5,4 5,0 0,-3 -5,-3 -5,0z"/>
  </g>
 </g>
</svg>
