<?xml version="1.0" encoding="UTF-8"?>
<!DOCTYPE svg PUBLIC "-//W3C//DTD SVG 1.1//EN" "http://www.w3.org/Graphics/SVG/1.1/DTD/svg11.dtd">
<!-- Creator: CorelDRAW X7 -->
<svg xmlns="http://www.w3.org/2000/svg" xml:space="preserve" width="9.9792mm" height="10mm" version="1.1" style="shape-rendering:geometricPrecision; text-rendering:geometricPrecision; image-rendering:optimizeQuality; fill-rule:evenodd; clip-rule:evenodd"
viewBox="0 0 3370 3377"
 xmlns:xlink="http://www.w3.org/1999/xlink">
 <defs>
  <style type="text/css">
   <![CDATA[
    .fil0 {fill:black}
   ]]>
  </style>
 </defs>
 <g id="Warstwa_x0020_1">
  <metadata id="CorelCorpID_0Corel-Layer"/>
  <g id="_2020436082288">
   <path class="fil0" d="M400 800c86,0 385,-49 443,-49 0,186 78,158 -267,197 -125,14 -176,52 -176,-148zm555 -63c66,0 413,-56 498,-56 1,41 24,113 5,145 -20,32 -240,48 -286,51 -171,15 -212,62 -217,-140zm1123 -7c0,57 -121,54 -203,64 -69,8 -253,45 -280,12 -12,-15 -17,-95 -18,-124 0,-16 -9,-5 3,-17 5,-4 178,-22 198,-25 70,-8 132,-16 201,-23 79,-8 99,-41 99,113zm106 -140c60,0 248,-28 329,-36 34,-3 78,-13 113,-13 0,152 87,164 -204,189 -178,15 -238,79 -238,-140zm-1145 21c24,-36 353,-397 379,-414 0,112 34,282 35,365l-414 49zm-618 70c10,-39 36,-67 62,-93 33,-34 53,-42 97,-64 39,-19 66,-30 106,-49 40,-19 66,-33 109,-52l434 -205c-7,26 -115,129 -147,169l-111 120c-140,141 -38,111 -259,142 -49,7 -100,13 -144,17 -51,5 -95,15 -147,15zm1110 -498c72,48 141,104 213,158 38,28 68,51 105,78 24,19 93,59 103,87 -90,0 -330,42 -386,42 0,-59 -9,-122 -15,-182l-20 -183zm189 -7l688 140c72,16 134,60 169,112l-408 49c-59,6 -35,12 -102,-38l-347 -263zm-1439 603c0,356 162,308 431,270 144,-20 115,1 215,-66 78,41 110,29 206,16 41,-5 84,-9 119,-14 68,-9 190,-15 237,-37 0,45 10,97 13,141l106 1011c6,97 20,188 29,287 3,44 9,96 15,146l75 725 -98 0 0 112 281 0 0 -112 -63 0c-23,-271 -74,-599 -92,-870 -10,-148 -45,-422 -62,-578 -10,-101 -21,-195 -29,-293l-63 -583c49,11 231,-16 292,-24 101,-14 211,-8 256,-74 88,46 139,26 252,14 80,-9 237,-15 290,-62 40,-34 61,-68 61,-128 0,-211 -82,-381 -283,-447 -70,-23 -510,-109 -602,-128l-303 -62c-34,-7 -72,-17 -106,-20 -30,-2 -66,10 -91,23l-914 434c-87,61 -172,176 -172,319z"/>
   <path class="fil0" d="M2191 2795l0 -604 786 0 0 604c0,107 -75,182 -182,182l-422 0c-107,0 -182,-75 -182,-182zm0 -794c53,0 170,-16 212,-26 52,-13 113,-66 118,-121l126 0c11,132 225,147 330,147l0 77 -786 0 0 -77zm800 -119c-66,0 -88,-5 -142,-12 -67,-9 -70,-1 -97,-51 102,-54 143,-103 197,-204 18,5 140,78 140,154 0,51 -47,113 -98,113zm-913 -106c0,-72 53,-100 94,-131 16,-12 27,-25 47,-30 37,71 109,175 189,197 -1,53 -32,51 -83,57 -75,9 -164,35 -214,-20 -11,-13 -33,-54 -33,-73zm225 -316c0,-33 15,-88 26,-114 117,-272 536,-185 536,114 0,300 -419,386 -536,115 -11,-26 -26,-81 -26,-115zm-112 29c-136,90 -225,144 -225,294 0,75 60,169 112,183l0 618 -168 0 0 112 168 0c0,201 -30,330 -42,513 -4,54 -14,101 -14,161l112 7c5,-53 15,-124 20,-176 7,-60 16,-123 16,-182 38,26 71,62 133,63l0 176 112 0 0 -169 337 0 0 169 113 0 0 -176c61,-1 95,-37 133,-63 0,94 27,255 35,358l113 -7c0,-55 -11,-104 -14,-154 -12,-178 -43,-333 -43,-520l281 0 0 -112 -281 0 0 -618c29,-8 63,-47 77,-70 61,-98 45,-229 -47,-303l-142 -104c0,-86 -3,-106 -25,-172 -15,-42 -48,-93 -75,-122 -158,-170 -421,-172 -583,-3 -80,83 -103,174 -103,297z"/>
   <path class="fil0" d="M393 2795l0 -604 787 0 0 604c0,107 -76,182 -183,182l-421 0c-108,0 -183,-75 -183,-182zm562 -991c0,-85 23,-26 91,-154 27,2 189,53 213,75 51,46 37,115 -12,147 -44,29 -148,3 -222,-5 -40,-4 -70,-19 -70,-63zm-674 -7c0,-63 44,-84 95,-101 39,-12 116,-43 151,-46 11,21 26,46 41,64 26,34 50,30 50,76 0,92 -72,76 -171,90 -44,5 -77,15 -112,-3 -25,-12 -54,-48 -54,-80zm337 -308c19,-224 318,-224 337,0 -34,-3 -65,-21 -98,-29 -2,24 -27,94 -35,113l112 36c-13,48 -91,91 -91,118 0,94 -15,195 107,244 29,11 188,30 230,30l0 77 -787 0 0 -77c42,0 195,-18 224,-29 127,-44 113,-155 113,-245 0,-27 -78,-70 -91,-119l112 -36c-9,-18 -33,-88 -35,-112 -33,8 -64,26 -98,29zm-112 42c-37,8 -75,24 -112,36 -112,37 -225,65 -225,237 0,96 52,129 94,166 12,10 18,4 18,24l0 590 -281 0 0 112 281 0c0,228 -56,515 -56,674l112 7c9,-103 35,-264 35,-358 38,26 72,62 134,63l0 176 112 0 0 -169 337 0 0 169 112 0 0 -176c62,-1 96,-37 134,-63 0,59 9,122 15,182 5,52 15,123 20,176l112 -7c0,-142 -56,-459 -56,-674l225 0 0 -112 -225 0 0 -590c0,-21 4,-12 14,-21 40,-39 98,-55 98,-190 0,-85 -57,-148 -116,-178l-221 -74c0,-121 -10,-156 -63,-225 -99,-131 -335,-133 -435,0 -53,69 -63,104 -63,225z"/>
   <path class="fil0" d="M3089 112c47,0 169,-17 169,56 0,28 -32,57 -63,57l-443 0 0 112 464 0c86,0 154,-74 154,-183 0,-77 -77,-154 -154,-154l-127 0 0 112z"/>
   <path class="fil0" d="M2528 1460c0,-70 112,-70 112,0 0,71 -112,71 -112,0zm-113 -14c0,245 337,245 337,0 0,-86 -73,-154 -182,-154 -77,0 -155,77 -155,154z"/>
   <polygon class="fil0" points="2865,562 3146,562 3146,449 2865,449 "/>
   <polygon class="fil0" points="3258,562 3370,562 3370,449 3258,449 "/>
  </g>
 </g>
</svg>
