<?xml version="1.0" encoding="UTF-8"?>
<!DOCTYPE svg PUBLIC "-//W3C//DTD SVG 1.1//EN" "http://www.w3.org/Graphics/SVG/1.1/DTD/svg11.dtd">
<!-- Creator: CorelDRAW X7 -->
<svg xmlns="http://www.w3.org/2000/svg" xml:space="preserve" width="10.6886mm" height="10mm" version="1.1" style="shape-rendering:geometricPrecision; text-rendering:geometricPrecision; image-rendering:optimizeQuality; fill-rule:evenodd; clip-rule:evenodd"
viewBox="0 0 209 195"
 xmlns:xlink="http://www.w3.org/1999/xlink">
 <defs>
  <style type="text/css">
   <![CDATA[
    .fil0 {fill:black}
   ]]>
  </style>
 </defs>
 <g id="Warstwa_x0020_1">
  <metadata id="CorelCorpID_0Corel-Layer"/>
  <g id="_2020198511024">
   <path class="fil0" d="M52 55l10 -10c15,8 7,10 21,4 4,-3 10,-3 11,-5 1,-1 3,-11 3,-14l15 0c4,20 -1,12 14,18 7,3 7,6 11,4 3,-3 7,-5 10,-7l10 10c-5,10 -9,10 -6,15 1,2 1,3 3,6 0,2 1,4 2,6 0,2 1,5 2,6 1,0 11,2 14,2l0 15c-2,0 -5,1 -7,1 -11,2 -6,1 -11,13 -3,7 -6,8 -3,11 2,4 4,7 6,10l-10 10c-10,-5 -10,-9 -15,-6 -4,2 -7,4 -12,5 -2,1 -5,1 -6,3 0,1 -2,11 -2,13l-15 0c-3,-14 0,-14 -8,-16l-9 -3c-4,-2 -5,-5 -8,-2 -4,2 -7,4 -10,6l-10 -10c8,-15 10,-7 3,-21 -1,-2 -1,-3 -2,-5 -3,-9 0,-6 -16,-9l0 -15c14,-3 14,0 16,-8 3,-11 8,-13 5,-17 -2,-3 -4,-6 -6,-10zm36 -16c-3,1 -7,2 -10,4 -4,2 -1,4 -13,-4 -5,-4 -5,-2 -13,6 -3,3 -8,7 -8,10 0,2 7,11 7,13 0,0 -2,5 -3,6 0,2 -2,5 -2,8 -2,0 -7,1 -9,1 -9,2 -7,1 -7,25 0,3 4,3 7,4 2,0 6,2 9,2 1,3 2,7 4,10 0,1 1,3 1,4 0,2 -7,10 -7,13 0,2 5,7 8,9 9,9 8,11 16,5 7,-6 6,-5 10,-3 3,2 7,3 10,4 0,2 2,7 2,9 2,9 0,7 24,7 4,0 4,-4 5,-7 0,-2 1,-6 1,-9 4,-1 8,-2 11,-4 4,-1 2,-3 10,2 8,6 6,6 20,-8 5,-5 5,-5 0,-12 -7,-11 -2,-3 2,-20 2,0 6,-2 9,-2 9,-2 6,0 6,-24 0,-4 -3,-4 -6,-5 -2,0 -7,-1 -9,-1 -1,-4 -2,-8 -4,-11 -2,-5 -3,-1 2,-10 6,-9 7,-5 -9,-20 -1,-2 -2,-4 -5,-4 -2,0 -11,8 -13,8 -1,0 -2,-1 -3,-2 -4,-2 -6,-3 -11,-4 0,-2 -1,-6 -1,-9 -2,-8 -1,-6 -25,-6 -3,0 -3,3 -4,6 0,2 -2,7 -2,9z"/>
   <path class="fil0" d="M7 94c0,3 -1,7 3,7 5,0 3,-7 4,-13 2,-16 6,-26 14,-39 1,-3 3,-5 5,-7 1,-1 2,-2 2,-4 14,-16 36,-28 58,-30 20,-3 40,1 57,11 4,2 7,5 11,8 7,5 13,12 19,20l9 19 3 8c-3,-1 -17,-12 -17,-3 0,3 5,4 10,7l12 6c2,0 3,-2 4,-4 1,-3 8,-18 8,-19 0,-2 -2,-4 -4,-4 -3,0 -4,5 -6,9l-1 3c0,-2 -2,-5 -3,-7 0,-2 -2,-5 -3,-7 -2,-5 -4,-8 -7,-13 -19,-27 -48,-42 -82,-42 -16,0 -28,4 -39,9 -4,1 -12,6 -15,8 -3,2 -5,4 -7,5 -1,1 -2,2 -3,3 -2,2 -4,3 -6,6 -2,2 -5,6 -8,10 -2,2 -3,5 -5,7 -3,6 -5,10 -8,16 -1,3 -1,6 -2,9 -2,6 -3,14 -3,21z"/>
   <path class="fil0" d="M105 189c-21,0 -41,-8 -57,-20 -11,-9 -19,-20 -26,-33 -2,-4 -3,-7 -4,-11 0,0 -1,-2 -1,-3 3,0 17,11 17,3 0,-4 -5,-5 -10,-8 -2,-1 -4,-2 -6,-3 -1,-1 -4,-3 -6,-3 -3,0 -4,2 -4,4 -1,2 -2,5 -3,7 -1,2 -5,11 -5,13 0,2 1,3 3,3 3,0 4,-3 5,-5l3 -7c0,0 0,0 0,0 0,0 0,0 0,0 0,6 9,22 13,27 5,8 11,15 19,21 7,6 16,11 25,14 30,12 65,9 92,-10l13 -11c4,-4 7,-8 11,-12 2,-3 3,-5 4,-7 9,-15 14,-31 14,-50 0,-2 -1,-4 -3,-4 -5,0 -4,8 -4,13 -1,3 -1,4 -1,6 -1,6 -3,12 -5,18 -4,10 -9,18 -16,26 -12,14 -29,24 -47,29 -6,1 -15,3 -21,3z"/>
   <path class="fil0" d="M67 98c0,-26 27,-45 52,-34 3,1 4,2 6,3 8,5 13,13 15,22 7,27 -17,51 -44,45 -14,-4 -24,-14 -28,-28 0,-2 -1,-6 -1,-8zm-6 -2c0,8 0,13 4,21 4,9 11,16 20,20 29,14 63,-7 63,-38 0,-8 -1,-13 -4,-20 -2,-5 -5,-9 -9,-12 -6,-7 -18,-13 -28,-13l-4 0c-12,0 -23,6 -30,13 -6,6 -12,17 -12,29z"/>
   <path class="fil0" d="M101 71l0 27c0,8 12,-1 14,-3 2,-1 10,-5 10,-7 0,-7 -7,-3 -11,0 -1,0 -5,3 -6,3 0,-4 0,-9 0,-13 0,-5 1,-11 -4,-11 -2,0 -3,2 -3,4z"/>
   <path class="fil0" d="M74 98c0,4 4,3 7,3 4,0 4,-7 0,-7 -3,0 -7,0 -7,4z"/>
   <path class="fil0" d="M125 98c0,4 4,3 6,3 5,0 5,-7 0,-7 -2,0 -6,0 -6,4z"/>
   <path class="fil0" d="M101 121c0,3 -1,7 3,7 4,0 4,-4 4,-7 0,-4 -7,-4 -7,0z"/>
  </g>
 </g>
</svg>
