<?xml version="1.0" encoding="UTF-8"?>
<!DOCTYPE svg PUBLIC "-//W3C//DTD SVG 1.1//EN" "http://www.w3.org/Graphics/SVG/1.1/DTD/svg11.dtd">
<!-- Creator: CorelDRAW X7 -->
<svg xmlns="http://www.w3.org/2000/svg" xml:space="preserve" width="9.9978mm" height="10mm" version="1.1" style="shape-rendering:geometricPrecision; text-rendering:geometricPrecision; image-rendering:optimizeQuality; fill-rule:evenodd; clip-rule:evenodd"
viewBox="0 0 364 364"
 xmlns:xlink="http://www.w3.org/1999/xlink">
 <defs>
  <style type="text/css">
   <![CDATA[
    .fil0 {fill:black}
   ]]>
  </style>
 </defs>
 <g id="Warstwa_x0020_1">
  <metadata id="CorelCorpID_0Corel-Layer"/>
  <g id="_2020436060656">
   <path class="fil0" d="M281 329l48 0c1,7 4,16 4,23l-56 0c0,-5 3,-17 4,-23zm-81 -202l0 -21 23 0 0 21c0,19 -23,19 -23,0zm-188 -115l94 0 0 82 -94 0 0 -82zm315 66l0 0zm-99 -31l60 0c4,0 6,1 8,2 4,4 11,12 13,17 5,9 8,18 8,32l0 219 -24 0 0 -226c0,-15 -16,-32 -32,-32 -6,0 -9,0 -15,2 -3,1 -4,1 -7,4 -11,-8 -13,-6 -31,-6 4,-5 11,-12 20,-12zm-38 12l-8 0 0 12 39 0c18,0 18,23 0,23 -19,0 -44,2 -61,-3l-13 -6c-2,-1 -3,-3 -5,-3l-25 0 0 -53c0,-3 4,-4 8,-6 11,-7 16,-11 31,-11l128 0c28,0 39,14 55,31 7,6 19,15 10,24 -15,17 -33,-31 -57,-31l-68 0c-8,0 -15,5 -19,9 -2,2 -13,14 -15,14zm137 19c1,0 21,13 34,-5 2,-5 4,-13 2,-20 -2,-7 -6,-9 -10,-14 -19,-18 -29,-34 -57,-38 -9,-2 -123,-1 -143,-1 -11,0 -19,3 -28,8 -2,2 -5,4 -8,5l0 -13 -117 0 0 106 117 0 0 -12c32,0 13,-2 35,7 12,5 19,5 36,5 0,11 -2,26 2,34 10,19 36,17 43,-2 3,-9 2,-24 2,-35 6,-4 11,-10 12,-19 0,-4 -1,-6 -1,-10 9,-4 18,-5 26,2 8,6 10,12 10,26l0 215 -11 0c-4,15 -5,32 -8,47l85 0 -8 -47 -11 0 0 -225c0,-6 -2,-9 -2,-14z"/>
   <path class="fil0" d="M12 234l0 -58c17,0 36,-5 49,-10 10,-4 21,-10 30,-16 13,-10 4,-8 27,5 18,12 46,21 70,21l0 58c0,49 -26,92 -69,111 -19,8 -20,9 -42,-2 -8,-4 -13,-7 -20,-12 -2,-2 -2,-2 -4,-3 -8,-8 -6,-5 -15,-17 -18,-22 -26,-47 -26,-77zm-10 -69l-2 0 0 79c0,26 11,51 25,71 4,6 14,17 20,21 2,3 4,4 7,7 3,2 6,3 9,5 5,4 12,7 18,10 18,8 23,8 42,0 5,-3 13,-6 18,-10 3,-2 5,-3 8,-5 3,-2 5,-4 7,-6 6,-5 16,-15 20,-22 14,-19 26,-46 26,-71l0 -79c-37,0 -64,-10 -90,-30 -4,-2 -7,-5 -10,-7 -4,2 -6,4 -10,7 -25,19 -52,30 -88,30z"/>
   <path class="fil0" d="M35 247c0,-9 3,-20 6,-27 14,-31 52,-47 85,-32 8,4 14,8 20,14 0,0 0,0 0,0l7 8c12,18 15,42 5,63 -3,7 -7,13 -12,19 -20,19 -47,25 -73,14 -8,-4 -13,-8 -19,-14 -5,-6 -9,-11 -13,-19 -3,-6 -6,-17 -6,-26zm-12 -5c0,15 1,24 8,38 4,8 9,15 15,21 12,12 32,22 49,22 15,0 24,-1 38,-7 24,-12 43,-38 43,-65 0,-15 -1,-24 -7,-37 -12,-24 -38,-43 -65,-43 -15,0 -24,0 -37,7 -24,12 -44,38 -44,64z"/>
   <path class="fil0" d="M94 206c-26,7 -22,45 4,47 18,1 15,18 6,22 -7,3 -14,-1 -16,-11l-12 0c0,13 8,21 18,23l0 13 12 0 0 -13c26,-6 22,-44 -4,-46 -5,0 -8,-1 -11,-4 -12,-14 15,-31 21,-8l11 0c0,-12 -8,-20 -17,-23l0 -12 -12 0 0 12z"/>
   <polygon class="fil0" points="47,253 59,253 59,241 47,241 "/>
   <polygon class="fil0" points="141,253 153,253 153,241 141,241 "/>
  </g>
 </g>
</svg>
