<?xml version="1.0" encoding="UTF-8"?>
<!DOCTYPE svg PUBLIC "-//W3C//DTD SVG 1.1//EN" "http://www.w3.org/Graphics/SVG/1.1/DTD/svg11.dtd">
<!-- Creator: CorelDRAW X7 -->
<svg xmlns="http://www.w3.org/2000/svg" xml:space="preserve" width="9.9999mm" height="10mm" version="1.1" style="shape-rendering:geometricPrecision; text-rendering:geometricPrecision; image-rendering:optimizeQuality; fill-rule:evenodd; clip-rule:evenodd"
viewBox="0 0 304 304"
 xmlns:xlink="http://www.w3.org/1999/xlink">
 <defs>
  <style type="text/css">
   <![CDATA[
    .fil0 {fill:black}
   ]]>
  </style>
 </defs>
 <g id="Warstwa_x0020_1">
  <metadata id="CorelCorpID_0Corel-Layer"/>
  <g id="_2020435663824">
   <path class="fil0" d="M118 37c-9,2 -17,6 -24,9 -2,-3 -8,-8 -10,-11 -6,-5 -8,-9 -17,-9 -7,0 -12,8 -16,12 -7,6 -4,10 1,10 5,0 12,-13 16,-13 4,0 10,8 13,11 18,17 8,10 35,1 16,-5 10,-3 11,-33 0,-4 2,-5 6,-5 49,0 44,-4 44,15 0,4 0,7 0,11 0,10 2,9 10,12 3,1 5,1 8,3 2,0 2,1 4,1 10,5 10,8 18,1 2,-2 4,-4 6,-6 12,-12 10,-15 21,-4 3,3 6,6 9,9 21,21 21,14 -1,36 -8,8 -4,7 2,21 11,26 -2,17 36,19 4,0 5,2 5,6 0,49 4,44 -15,44 -4,0 -8,0 -11,0 -13,0 -8,2 -15,18 -7,18 -11,13 4,28 16,15 16,9 -13,38 -8,8 -8,11 -16,3l-12 -12c-10,-9 -7,-2 -29,5 -2,1 -7,2 -9,3 -3,2 -2,13 -2,19 0,6 2,16 -6,16 -49,0 -44,4 -44,-15 0,-20 3,-18 -10,-23 -6,-2 -11,-3 -15,-6 -8,-4 -9,-5 -15,1 -2,2 -4,4 -6,6 -16,16 -11,14 -30,-5 -16,-16 -20,-16 -11,-24l11 -12c10,-10 3,-7 -4,-29 -1,-2 -2,-7 -3,-9 -2,-3 -4,-2 -8,-2l-22 0c-4,0 -5,-2 -5,-6 0,-49 -4,-44 15,-44 4,0 7,0 11,0 12,0 8,-3 15,-18 7,-18 11,-12 -4,-28 -2,-2 -11,-10 -11,-12 0,-5 7,-6 7,-10 0,-3 -3,-5 -5,-5 -5,0 -11,8 -11,13 0,9 3,11 9,16 3,3 8,9 11,11 -3,7 -7,15 -9,24 -10,0 -26,-3 -33,4 -2,1 -4,4 -4,8l0 44c0,7 7,11 13,12 5,1 17,0 24,0 2,8 6,17 9,24 -3,1 -8,8 -11,10 -5,6 -9,8 -9,17 0,7 14,18 18,23 4,3 7,6 10,10 6,5 8,8 16,8 6,0 10,-6 13,-9 3,-3 9,-9 11,-11 7,3 16,7 24,9 0,10 -3,25 3,33 2,1 6,4 8,4l45 0c7,0 11,-7 12,-13 1,-5 0,-18 0,-24 7,0 18,-6 24,-9 1,2 8,8 10,11 6,5 8,9 17,9 7,0 18,-14 23,-18 3,-4 6,-7 10,-11 5,-5 8,-7 8,-15 0,-6 -6,-10 -9,-13 -3,-3 -9,-10 -11,-11 3,-7 7,-16 9,-24 6,0 19,1 24,0 6,-1 13,-5 13,-12l0 -45c0,-6 -7,-11 -13,-11 -5,-1 -18,0 -24,0 -2,-9 -6,-17 -9,-24 2,-2 8,-8 11,-10 5,-6 9,-8 9,-17 0,-7 -14,-18 -18,-23 -5,-4 -16,-18 -23,-18 -9,0 -11,3 -16,9 -3,3 -10,8 -11,11 -6,-3 -17,-9 -24,-9 0,-10 3,-25 -3,-33 -2,-1 -6,-4 -9,-4l-44 0c-7,0 -11,6 -12,12 -1,5 0,19 0,25z"/>
   <path class="fil0" d="M209 110c0,2 1,4 3,5 1,0 1,0 2,1 22,10 29,50 0,64 -9,5 -14,3 -19,3 4,-8 4,-25 -3,-25 -1,0 -4,1 -4,3 -1,3 3,11 -2,18 -8,11 -20,4 -20,12 0,7 10,4 15,3 9,-3 3,-5 12,-3 5,2 13,1 19,0 -1,4 -1,8 -2,12 -1,4 -3,6 -5,9l-1 2c-5,4 -12,7 -19,7 1,-3 3,-8 3,-10 0,-4 -6,-9 -10,1 -3,9 -4,19 -16,19 -2,0 -5,-1 -5,-3l0 -141c0,-9 11,-19 23,-11 2,2 5,5 6,5 4,2 28,0 37,21 1,3 2,7 3,10 -3,-2 -9,-6 -12,-6 -3,0 -5,1 -5,4zm-131 2c1,-12 9,-22 20,-26 10,-4 16,-3 19,-4 4,-2 6,-9 17,-9 5,0 10,4 12,8 2,5 1,14 1,20l0 128c-1,0 -7,5 -14,-1 -7,-6 -6,-21 -13,-21 -8,0 -2,10 -1,14 -5,0 -8,-1 -12,-3 -1,0 -3,-1 -4,-2 -1,-1 -1,-1 -2,-2 0,0 -1,-1 -1,-1 0,0 -1,-1 -1,-1 -5,-5 -6,-11 -7,-21 6,1 13,2 19,1 5,-2 4,-3 7,0 4,2 13,5 17,3 1,0 3,-2 3,-3 0,-7 -5,-5 -10,-6 -18,-5 -11,-22 -12,-24 0,-3 -10,-12 -10,10 0,4 2,8 3,11 -9,0 -18,1 -26,-7 -9,-9 -12,-16 -12,-28 0,-10 5,-22 13,-29 1,-1 1,-1 2,-2 4,-2 9,-3 9,-7 0,-8 -9,-3 -11,-2 -3,1 -3,2 -6,4zm-17 38c0,9 3,17 7,22 2,3 4,6 7,9 1,1 2,2 4,3 1,1 2,2 4,3 0,14 1,20 7,28 6,9 17,14 28,15 5,1 4,-1 7,2 3,4 6,6 11,7 5,2 10,1 14,-1 3,-2 2,-1 5,1 6,3 13,1 18,-2 5,-3 6,-5 8,-6 2,-1 26,1 36,-20 3,-8 4,-13 4,-24 12,-6 22,-22 22,-37 0,-7 -3,-17 -6,-23 -5,-10 1,-10 -4,-25 -2,-5 -5,-10 -8,-13 -7,-8 -14,-12 -25,-15 -6,-1 -8,0 -11,-3 -1,-1 -2,-1 -3,-2 -8,-6 -17,-7 -26,-3 -4,3 -5,5 -8,7 -3,-2 -8,-9 -19,-9 -12,0 -19,8 -20,9 -3,1 -18,0 -32,12 -7,7 -12,19 -12,33 0,9 -1,5 -5,15 -1,5 -3,10 -3,17z"/>
   <path class="fil0" d="M117 134c5,0 8,2 11,2 3,0 7,-6 1,-9 -12,-6 -29,-2 -37,13 -1,4 -4,10 -2,14 1,4 8,6 9,-2 1,-10 8,-18 18,-18z"/>
   <path class="fil0" d="M200 138c0,2 2,4 3,6 4,8 0,13 7,14 10,1 2,-24 -5,-25 -3,0 -5,2 -5,5z"/>
   <path class="fil0" d="M176 136c2,0 6,-2 9,-2 4,-1 6,-1 6,-6 0,-7 -18,-3 -19,2 -1,3 3,6 4,6z"/>
  </g>
 </g>
</svg>
