<?xml version="1.0" encoding="UTF-8"?>
<!DOCTYPE svg PUBLIC "-//W3C//DTD SVG 1.1//EN" "http://www.w3.org/Graphics/SVG/1.1/DTD/svg11.dtd">
<!-- Creator: CorelDRAW X7 -->
<svg xmlns="http://www.w3.org/2000/svg" xml:space="preserve" width="10.0006mm" height="10mm" version="1.1" style="shape-rendering:geometricPrecision; text-rendering:geometricPrecision; image-rendering:optimizeQuality; fill-rule:evenodd; clip-rule:evenodd"
viewBox="0 0 378 378"
 xmlns:xlink="http://www.w3.org/1999/xlink">
 <defs>
  <style type="text/css">
   <![CDATA[
    .fil0 {fill:black}
   ]]>
  </style>
 </defs>
 <g id="Warstwa_x0020_1">
  <metadata id="CorelCorpID_0Corel-Layer"/>
  <g id="_2020198512080">
   <path class="fil0" d="M228 215l0 -67 11 0 0 67c0,6 1,12 3,16 1,2 2,4 3,6 1,2 4,5 5,6l0 118c-3,1 -15,6 -16,6 -2,0 -14,-5 -17,-6 0,-9 0,-113 0,-117 1,-4 11,-10 11,-29zm-228 -136l0 -6c0,-3 1,-6 6,-6 15,0 -8,36 33,62 5,3 15,7 24,7 2,-7 9,-14 18,-14l39 0c16,0 17,15 20,15 19,0 7,-1 17,-10 3,-3 7,-5 13,-5l38 0c6,0 10,2 13,5 6,6 5,10 8,10 12,0 10,1 12,-4 3,-4 6,-8 11,-10l-2 -2c-14,-13 -11,-30 -11,-48 0,-13 5,-22 12,-29l4 -3c16,-12 38,-10 52,5 6,6 10,15 10,27 0,16 2,32 -8,45 -1,1 -2,2 -3,3 -1,1 -1,1 -2,2 5,2 10,8 12,13 8,0 19,-4 24,-8 19,-12 27,-28 27,-52 -1,-14 11,-12 11,-2 0,12 -1,23 -5,32 -10,23 -30,40 -56,42 0,16 2,67 -1,78 -5,17 -9,11 -9,21l0 49 31 10c5,2 11,3 16,5 14,5 12,2 12,30 0,9 -9,10 -11,4 -2,-3 -1,-16 -1,-21 -3,-2 -9,-3 -13,-5l-36 -12c-5,-1 -9,-2 -10,-7l0 -49c-17,8 -29,1 -33,1 0,26 0,52 0,78 0,43 3,38 -14,44 -17,6 -12,6 -30,0 -4,-2 -11,-3 -12,-7 -1,-4 -1,-106 -1,-115 -2,0 -3,1 -6,2 -14,4 -22,-2 -26,-2 0,9 1,112 -1,115 -1,4 -8,6 -12,7 -18,6 -13,6 -32,-1 -6,-2 -11,-2 -11,-9l0 -101 -33 0c0,42 3,40 -12,45l-48 16c0,5 1,18 -1,22 -3,5 -10,3 -10,-5 0,-28 -3,-25 12,-30 5,-2 10,-3 16,-5 5,-2 10,-4 15,-5 5,-2 11,-4 16,-5l0 -33c-13,0 -22,2 -22,-8 0,-15 0,-23 1,-37 1,-14 8,-21 10,-25 2,-4 0,-38 0,-45 -20,-2 -39,-14 -50,-31 -7,-11 -11,-24 -11,-38zm129 184c5,0 11,0 11,-8l0 -107 10 0 0 67c0,6 1,12 3,16 1,2 2,4 4,6 1,2 3,5 4,6l0 118c-3,1 -14,6 -16,6 -2,0 -13,-5 -16,-6l0 -98zm-67 -42c0,-6 5,-21 10,-21l56 0 0 51 -66 0 0 -30zm189 1l53 0c0,10 -13,22 -26,22 -13,0 -25,-11 -27,-22zm-88 0l53 0c-1,10 -13,22 -27,22 -13,0 -25,-11 -26,-22zm88 -80c0,-11 14,-9 21,-9l0 59c0,10 12,10 12,0l0 -59c7,0 21,-2 21,9l0 69 -54 0 0 -69zm-89 0c0,-5 5,-9 10,-9l34 0c6,0 11,4 11,9l0 69 -55 0 0 -69zm-89 0c0,-5 5,-9 11,-9l34 0c5,0 10,4 10,9l0 46 -55 0 0 -46zm178 -45l0 -12 13 0c6,0 6,-7 14,-7 8,0 8,7 14,7l13 0c0,10 1,13 -3,21 -1,2 -1,3 -2,5l-2 2c0,0 -1,0 -1,0 -10,11 -27,11 -38,1l-1 -1c-3,-3 -7,-11 -7,-16zm9 -23l-9 0c0,-9 2,-16 8,-22 20,-18 46,0 46,17l0 5c-17,0 -7,0 -16,-5 -16,-9 -27,5 -29,5z"/>
   <path class="fil0" d="M51 87c0,-7 5,-12 8,-12 4,-1 3,1 3,4 1,3 2,7 4,10 1,4 3,5 5,9 -3,0 -3,1 -6,1 -3,1 -5,0 -7,-1 -4,-2 -7,-5 -7,-11zm22 -12c0,-8 0,-10 4,-18 1,-2 2,-1 3,-3 3,2 6,6 9,8 10,8 24,14 38,16 -1,16 -27,31 -46,14l-5 -7c-1,-3 -3,-7 -3,-10zm16 -28c5,-1 14,-5 25,1 6,4 11,10 13,18 -13,0 -32,-11 -38,-19zm-26 16c-8,0 -13,3 -17,7 -2,3 -3,3 -4,7 -9,18 7,34 19,34 10,0 11,-1 19,-6 14,10 34,8 47,-5 16,-15 17,-39 2,-55 -22,-23 -60,-11 -66,18z"/>
   <path class="fil0" d="M162 75c0,-5 0,-7 1,-12l3 -7c4,1 8,10 21,11l24 -1c6,0 6,0 6,9 0,5 -4,12 -8,16 -3,3 -5,5 -9,6 -10,4 -21,3 -29,-5 -3,-2 -4,-4 -6,-7 -1,-3 -3,-7 -3,-10zm14 -27c13,-7 28,-3 35,7 -16,0 -29,3 -35,-7zm-26 24c0,20 18,39 36,39 8,0 14,0 21,-4 26,-16 28,-44 10,-62 -15,-15 -38,-16 -54,-1 0,0 -1,0 -1,0l-1 1c-5,6 -11,15 -11,27z"/>
   <path class="fil0" d="M228 18l0 -2c0,-6 10,-6 10,0 0,8 -10,6 -10,2zm3 -18l1 0c11,0 18,7 18,17 -1,22 -34,21 -34,-1 0,-8 7,-16 15,-16z"/>
   <path class="fil0" d="M356 215c0,0 0,-1 0,0 1,1 1,-1 1,-1 3,-6 10,-4 10,2 0,5 -7,6 -9,3 0,0 -2,-4 -2,-4zm-11 -1c0,24 33,24 33,0 0,-20 -33,-20 -33,0z"/>
   <path class="fil0" d="M33 27c0,0 0,0 1,0 0,1 -1,-1 1,-3 3,-3 9,-2 9,4 0,5 -6,6 -9,3 0,0 -2,-3 -2,-4zm-11 0c0,23 33,23 33,0 0,-21 -33,-21 -33,0z"/>
   <path class="fil0" d="M11 215c0,0 0,-1 0,0 1,1 0,-1 2,-3 7,-7 14,9 3,9 -4,-1 -5,-6 -5,-6zm-11 -1l0 0c0,-20 33,-20 33,0 0,24 -33,24 -33,0z"/>
   <path class="fil0" d="M145 33c7,0 7,-12 0,-12 -8,0 -8,12 0,12z"/>
   <path class="fil0" d="M75 5c0,4 3,6 6,6 8,0 8,-11 0,-11l0 0c-3,0 -6,2 -6,5z"/>
   <path class="fil0" d="M297 22c3,0 6,-2 6,-5 0,-4 -2,-6 -6,-6 -7,0 -7,11 0,11z"/>
   <path class="fil0" d="M323 38c0,9 11,9 11,0 0,-6 -11,-6 -11,0z"/>
   <path class="fil0" d="M11 160c0,9 11,9 11,0 0,-6 -11,-6 -11,0z"/>
   <path class="fil0" d="M356 160c0,9 11,9 11,0 0,-6 -11,-6 -11,0z"/>
   <path class="fil0" d="M334 182c0,9 11,9 11,0 0,-6 -11,-6 -11,0z"/>
  </g>
 </g>
</svg>
