<?xml version="1.0" encoding="UTF-8"?>
<!DOCTYPE svg PUBLIC "-//W3C//DTD SVG 1.1//EN" "http://www.w3.org/Graphics/SVG/1.1/DTD/svg11.dtd">
<!-- Creator: CorelDRAW X7 -->
<svg xmlns="http://www.w3.org/2000/svg" xml:space="preserve" width="10.0099mm" height="10mm" version="1.1" style="shape-rendering:geometricPrecision; text-rendering:geometricPrecision; image-rendering:optimizeQuality; fill-rule:evenodd; clip-rule:evenodd"
viewBox="0 0 9583 9573"
 xmlns:xlink="http://www.w3.org/1999/xlink">
 <defs>
  <style type="text/css">
   <![CDATA[
    .fil0 {fill:black}
   ]]>
  </style>
 </defs>
 <g id="Warstwa_x0020_1">
  <metadata id="CorelCorpID_0Corel-Layer"/>
  <g id="_2020436069424">
   <path class="fil0" d="M2078 7280l99 161c86,143 223,349 335,462 135,135 31,68 259,260l297 242c791,549 1800,680 2733,363 385,-131 847,-425 1129,-705 170,-168 396,-478 520,-698l53 -85 0 1974 -5425 0 0 -1974zm6562 1974l-817 0 0 -1436 1077 0 -260 1436zm-7958 -1436l1077 0 0 1436 -817 0 -260 -1436zm7141 -638l1436 0 0 319 -1436 0 0 -319zm-7500 0l1436 0 0 319 -1436 0 0 -319zm7500 -1117l678 0c7,93 77,289 106,392 40,136 83,276 113,406l-897 0 0 -798zm-6742 0l678 0 0 798 -897 0 219 -798zm997 -159c0,-739 305,-1412 803,-1910 302,-302 442,-377 799,-557 628,-316 1582,-322 2221,0 82,41 151,74 227,113 515,266 875,737 1130,1243 319,634 319,1587 0,2221 -397,788 -988,1319 -1864,1526 -72,17 -207,45 -287,53 -871,86 -1637,-191 -2226,-780 -158,-158 -339,-369 -444,-573 -39,-75 -72,-145 -113,-226 -69,-137 -137,-338 -171,-507 -32,-161 -75,-403 -75,-603zm6562 -160l-817 0 0 -1436 1077 0 -129 710c-46,245 -77,495 -131,726zm-7958 -1436l1077 0 0 1436 -817 0c-26,-112 -42,-233 -65,-354l-195 -1082zm7141 -638l1436 0 0 319 -1436 0 0 -319zm-7500 0l1436 0 0 319 -1436 0 0 -319zm7500 -1117l678 0c7,93 77,289 106,392 40,136 83,276 113,406l-897 0 0 -798zm-6742 0l678 0 0 798 -897 0 219 -798zm997 1974l0 -1974 5425 0 0 1974 -47 -72c-213,-377 -437,-656 -773,-922 -259,-205 -518,-364 -852,-484 -924,-332 -1959,-204 -2763,353 -110,76 -190,147 -287,233l-269 269c-240,259 -378,560 -434,623zm1437 -3231c0,-98 80,-179 179,-179l2194 0c99,0 179,81 179,179l0 938 -2552 0 0 -938zm-320 -60l0 998 -638 0 0 -1735c0,-99 81,-180 180,-180l4108 0c99,0 180,81 180,180l0 1735 -638 0 0 -998c0,-219 -220,-438 -439,-438l-2314 0c-219,0 -439,219 -439,438zm-957 -797l0 1795 -1276 0c-176,0 -201,260 -271,507l-168 610c-605,0 -519,-104 -519,797 0,183 160,160 339,160 107,459 186,1085 287,1568 21,99 24,144 112,167 -9,110 -75,294 -108,410 -21,75 -37,128 -58,202 -20,66 -48,142 -53,206 -605,0 -519,-104 -519,798 0,182 160,159 339,159l171 926c31,168 60,319 86,473 26,158 28,356 202,356l7978 0c171,0 175,-188 199,-339l260 -1416c412,0 339,27 339,-797 0,-220 -295,-160 -519,-160l-111 -408c-33,-116 -99,-300 -108,-410 83,-22 88,-57 108,-151 99,-447 188,-1144 291,-1584 412,0 339,26 339,-798 0,-219 -295,-159 -519,-159l-252 -905c-31,-110 -54,-212 -187,-212l-1276 0 0 -1795c0,-220 -220,-439 -439,-439l-4228 0c-220,0 -439,219 -439,439z"/>
   <path class="fil0" d="M3814 6223l40 0c1,63 20,230 31,307 32,224 24,413 57,642 12,82 31,255 31,327l-279 0c0,-65 17,-232 28,-310 14,-97 28,-239 32,-328l60 -638zm-299 -698l0 -260 638 0 0 260c0,498 -638,498 -638,0zm-320 119c0,95 56,221 96,284 56,90 112,146 204,195 -25,52 -140,1390 -140,1556 0,78 74,139 160,139l638 0c85,0 159,-61 159,-139 0,-166 -114,-1504 -139,-1556 88,-47 141,-99 196,-183 42,-64 103,-195 103,-296l0 -1336 -319 0 0 638 -160 0 0 -638 -319 0 0 638 -159 0 0 -638 -320 0 0 1336z"/>
   <path class="fil0" d="M5888 6442c47,23 122,47 179,60l0 997 -299 0 120 -1057zm179 -1795l0 1496c-114,-10 -473,-161 -638,-200 0,-501 -69,-1131 638,-1296zm-957 718l0 698c0,191 311,208 459,279 -6,261 -140,967 -140,1337 0,78 74,139 160,139l638 0c96,0 160,-63 160,-159l0 -3191c0,-414 -1277,-26 -1277,897z"/>
  </g>
 </g>
</svg>
