<?xml version="1.0" encoding="UTF-8"?>
<!DOCTYPE svg PUBLIC "-//W3C//DTD SVG 1.1//EN" "http://www.w3.org/Graphics/SVG/1.1/DTD/svg11.dtd">
<!-- Creator: CorelDRAW X7 -->
<svg xmlns="http://www.w3.org/2000/svg" xml:space="preserve" width="12.006mm" height="10mm" version="1.1" style="shape-rendering:geometricPrecision; text-rendering:geometricPrecision; image-rendering:optimizeQuality; fill-rule:evenodd; clip-rule:evenodd"
viewBox="0 0 265 220"
 xmlns:xlink="http://www.w3.org/1999/xlink">
 <defs>
  <style type="text/css">
   <![CDATA[
    .fil0 {fill:black}
   ]]>
  </style>
 </defs>
 <g id="Warstwa_x0020_1">
  <metadata id="CorelCorpID_0Corel-Layer"/>
  <g id="_2020435647568">
   <path class="fil0" d="M15 110l0 27c-6,-1 -8,-7 -7,-12 1,-2 6,-14 7,-15zm53 -37c7,5 10,12 7,16 -2,4 -11,3 -18,-1 -7,-5 -10,-13 -7,-17 2,-4 11,-3 18,2zm32 28c7,0 138,-1 141,0 1,3 0,50 0,57 0,7 3,20 -7,21l-114 0c-5,0 -25,1 -29,0 0,-2 -1,-71 0,-74 4,0 15,13 18,17 9,11 7,22 13,21 10,-2 -6,-27 -13,-33 -2,-2 -8,-8 -9,-9zm150 9l0 -26c5,0 8,7 6,12 -1,2 -5,14 -6,14zm-171 -18l0 0zm0 0l0 0zm15 0c1,-2 9,-14 12,-16 4,-4 11,-11 17,-5 11,12 -22,22 -29,21zm-3 -11c0,-3 0,-37 0,-39 4,-1 109,-1 126,-1 5,0 18,-1 22,3 4,4 2,18 2,23 0,5 1,22 0,25 -1,1 -116,1 -119,1 1,-2 11,-6 11,-15 1,-11 -12,-26 -30,-11 -2,2 -12,14 -12,14zm-40 12c-2,0 -25,0 -28,-1 0,-2 0,-33 0,-41 0,-13 14,-10 32,-10 5,0 24,0 27,1 1,2 1,37 0,39 -3,-2 -15,-25 -31,-20 -8,3 -16,15 -7,25 2,2 7,6 7,7zm21 8c1,1 -6,7 -8,8 -2,3 -5,6 -7,10 -3,4 -14,21 -7,23 7,2 6,-8 14,-20 2,-3 15,-17 18,-16 1,0 2,71 0,72 -4,3 -17,-1 -21,3 -2,2 -1,5 2,6 5,1 50,-1 57,2 11,4 22,9 33,13 8,3 12,-4 3,-8 -2,-1 -15,-5 -15,-6 1,-1 75,-1 77,0 1,2 -4,11 -5,14 -6,16 -11,11 -38,0 -7,-3 -9,4 -4,7 4,2 10,4 14,6 10,4 20,10 30,1 5,-5 9,-23 12,-27 2,-3 21,1 23,-17 1,-9 -1,-34 0,-40l12 -28c11,-26 -11,-25 -12,-31 -1,-5 1,-22 -1,-29 -6,-13 -18,-11 -29,-11 -14,0 -27,0 -40,0 -10,0 -29,2 -38,-2 -9,-3 -19,-7 -28,-11 -5,-2 -9,-4 -14,-6 -7,-3 -9,5 -4,7 4,2 27,11 28,12 -1,0 -76,1 -77,-1 -1,-2 3,-9 4,-12 1,-4 3,-9 7,-11 8,-3 21,9 26,6 2,-2 3,-4 1,-6 -1,-2 -17,-8 -19,-8 -17,-4 -21,13 -27,26 -3,9 -3,5 -11,7 -23,6 -8,40 -15,58 -3,8 -7,17 -10,26 -4,9 -5,19 5,25 8,4 7,1 7,11 0,16 -4,33 21,33 4,0 14,2 16,-2 3,-6 -8,-6 -11,-6 -18,0 -18,-1 -18,-19l0 -54c0,-6 1,-5 13,-5 7,0 31,-1 36,0z"/>
   <path class="fil0" d="M199 117c-2,3 -9,3 -9,13 0,13 15,11 18,15 2,2 1,6 -2,7 -2,1 -7,0 -9,-1 -2,-3 -1,-6 -7,-5 -3,3 -2,6 0,9 3,4 5,3 8,5 1,3 0,7 4,8 5,0 4,-5 5,-7 0,0 14,-6 9,-18 -4,-10 -14,-7 -18,-11 0,-4 1,-7 5,-7 5,1 4,5 8,5 4,0 4,-4 2,-7 -2,-4 -4,-3 -6,-6 -1,-3 0,-7 -4,-7 -5,0 -4,4 -4,7z"/>
  </g>
 </g>
</svg>
