<?xml version="1.0" encoding="UTF-8"?>
<!DOCTYPE svg PUBLIC "-//W3C//DTD SVG 1.1//EN" "http://www.w3.org/Graphics/SVG/1.1/DTD/svg11.dtd">
<!-- Creator: CorelDRAW X7 -->
<svg xmlns="http://www.w3.org/2000/svg" xml:space="preserve" width="10mm" height="10mm" version="1.1" style="shape-rendering:geometricPrecision; text-rendering:geometricPrecision; image-rendering:optimizeQuality; fill-rule:evenodd; clip-rule:evenodd"
viewBox="0 0 8066 8066"
 xmlns:xlink="http://www.w3.org/1999/xlink">
 <defs>
  <style type="text/css">
   <![CDATA[
    .fil0 {fill:black}
   ]]>
  </style>
 </defs>
 <g id="Warstwa_x0020_1">
  <metadata id="CorelCorpID_0Corel-Layer"/>
  <g id="_2020198513680">
   <path class="fil0" d="M3072 7704c0,-4 4,-13 5,-11 9,25 9,-17 11,-21 70,-127 217,-67 212,45 -4,73 -60,107 -115,104 -93,-5 -113,-117 -113,-117zm4994 -6429l0 6697c-1,38 -57,94 -95,94 -166,0 -142,-102 -142,-237l-3339 0 0 142c0,126 -237,126 -237,0l0 -2063 -708 0 0 976 378 0c125,0 125,237 0,237l-615 0c0,426 27,183 159,361 194,263 -1,584 -253,584 -375,0 -470,-376 -294,-593 135,-166 152,65 152,-352l-772 0c-230,0 -175,204 -173,551 2,229 -147,394 -331,394 -560,0 -475,-826 94,-693 0,-172 -12,-238 67,-343 57,-75 140,-146 264,-146l615 0 0 -976 -552 0c-191,0 -380,-200 -393,-379 -17,-212 -1,-1240 -1,-1543 0,-101 13,-307 -20,-374 -46,-91 -216,-46 -216,-162 0,-293 473,-98 473,189l0 1560 472 0c-97,-146 -236,-270 -236,-552l0 -1496c-316,-7 -660,-173 -894,-382l-181 -182c-65,-74 -162,-237 -207,-329 -45,-93 -262,-761 -41,-761 219,0 98,170 210,514 60,182 127,296 234,427 202,246 556,461 879,461 30,0 118,-300 394,-300l866 0c189,0 394,206 394,394l0 2206 236 0 0 -1560c0,-38 57,-94 95,-94l1591 0 0 -473c-182,0 -472,43 -472,-95l0 -2410c0,-38 56,-94 94,-94l520 0c38,0 94,56 94,94l0 2978 237 0 0 -2269c0,-38 56,-95 94,-95l1465 0c38,0 94,56 95,94zm-6412 6429c0,-4 5,-13 5,-11 12,34 -1,-97 119,-91 213,11 57,332 -84,188 -11,-12 -40,-82 -40,-86zm1418 -1796l236 0 0 976 -236 0 0 -976zm-945 -473l2126 0 0 236 -1874 0c-167,0 -248,-74 -252,-236zm488 -709l1166 0 0 473c-495,0 -931,81 -1129,-368 -20,-44 -19,-68 -37,-105zm1875 -945l3339 0 0 709c-337,0 -472,-49 -472,142 0,137 291,94 472,94l0 2867 -3339 0 0 -2867 2536 0c126,0 126,-236 0,-236l-2536 0 0 -709zm-1891 -693c0,-173 80,-252 252,-252l678 0c172,0 252,79 252,252l0 1402 -1182 0 0 -1402zm4049 -961l1181 0 0 1418 -1181 0 0 -1418zm-945 -1418l236 0 0 2127 -236 0 0 -2127zm945 709l1181 0 0 472 -1181 0 0 -472z"/>
   <path class="fil0" d="M2662 1260c47,11 63,27 96,47 249,148 601,151 855,6 42,-25 54,-41 105,-53 7,87 150,284 -38,592 -329,538 -1187,205 -1063,-433 13,-69 40,-94 45,-159zm512 -1260l32 0c127,4 252,53 332,148 274,324 29,573 22,655 48,11 71,24 106,52 197,158 351,354 351,642l0 772c0,37 -56,94 -94,94 -165,0 -142,-99 -142,-236 -146,97 -270,236 -552,236 -371,0 -420,-96 -630,-236 0,51 10,119 -7,165 -47,122 -229,71 -229,-23l0 -772c0,-162 76,-341 146,-437 66,-92 200,-231 311,-257 -6,-74 -110,-180 -110,-330 0,-106 63,-243 132,-325 80,-95 205,-144 332,-148zm355 1087l-145 60c-289,89 -445,-37 -533,-60 17,-63 79,-79 137,-99 218,-77 512,-7 541,99zm-567 -614c0,-305 456,-305 456,0 0,304 -456,304 -456,0z"/>
   <path class="fil0" d="M7215 2962l47 0c114,0 114,220 0,220l-47 0c-114,0 -114,-220 0,-220zm-331 78c0,553 709,459 709,63 0,-552 -709,-458 -709,-63z"/>
   <path class="fil0" d="M236 1055c1,-3 5,-12 5,-10 13,34 -1,-97 119,-91 146,7 135,226 -11,219 -24,-1 -57,-15 -72,-31 -12,-12 -41,-82 -41,-87zm-236 -15c0,506 709,506 709,0 0,-436 -709,-436 -709,0z"/>
   <path class="fil0" d="M945 347c0,-4 5,-13 5,-11 13,34 -1,-97 119,-91 213,11 57,332 -83,188 -12,-12 -41,-82 -41,-86zm-236 -16c0,506 709,506 709,0 0,-436 -709,-436 -709,0z"/>
   <path class="fil0" d="M236 331c0,194 237,194 237,0 0,-126 -237,-126 -237,0z"/>
   <path class="fil0" d="M1654 1040c0,193 236,193 236,0 0,-126 -236,-126 -236,0z"/>
   <path class="fil0" d="M236 1985c0,194 237,194 237,0 0,-126 -237,-126 -237,0z"/>
   <path class="fil0" d="M4726 5057c0,194 236,194 236,0 0,-126 -236,-126 -236,0z"/>
   <path class="fil0" d="M7357 5057c0,194 236,194 236,0 0,-126 -236,-126 -236,0z"/>
   <path class="fil0" d="M4726 7215c0,194 236,194 236,0 0,-125 -236,-125 -236,0z"/>
   <path class="fil0" d="M7357 7215c0,194 236,194 236,0 0,-125 -236,-125 -236,0z"/>
  </g>
 </g>
</svg>
