<?xml version="1.0" encoding="UTF-8"?>
<!DOCTYPE svg PUBLIC "-//W3C//DTD SVG 1.1//EN" "http://www.w3.org/Graphics/SVG/1.1/DTD/svg11.dtd">
<!-- Creator: CorelDRAW X7 -->
<svg xmlns="http://www.w3.org/2000/svg" xml:space="preserve" width="10.0001mm" height="10mm" version="1.1" style="shape-rendering:geometricPrecision; text-rendering:geometricPrecision; image-rendering:optimizeQuality; fill-rule:evenodd; clip-rule:evenodd"
viewBox="0 0 380 380"
 xmlns:xlink="http://www.w3.org/1999/xlink">
 <defs>
  <style type="text/css">
   <![CDATA[
    .fil0 {fill:black}
   ]]>
  </style>
 </defs>
 <g id="Warstwa_x0020_1">
  <metadata id="CorelCorpID_0Corel-Layer"/>
  <g id="_2020198503408">
   <path class="fil0" d="M244 361c0,-16 -1,-18 12,-18l0 12 12 0 0 -12 13 0 0 12 12 0 0 -12 12 0 0 12 12 0 0 -12 12 0 0 12 13 0 0 -12c13,0 12,2 12,18 0,3 -3,6 -7,6l-96 0c-4,0 -7,-3 -7,-6zm12 -37c0,-15 -1,-18 12,-18l0 13 13 0 0 -13 12 0 0 13 12 0 0 -13 12 0 0 13 12 0 0 -13 13 0 0 13 12 0 0 -13c13,0 12,3 12,18 0,4 -3,7 -7,7l-96 0c-4,0 -7,-3 -7,-7zm-171 -36c0,-7 3,-17 5,-22 7,-14 14,-21 28,-28 26,-12 58,-1 72,28 7,13 7,31 0,45 -6,13 -14,20 -27,27 -27,13 -59,1 -73,-27 -2,-6 -5,-15 -5,-23zm159 -1c0,-15 -1,-17 12,-17l0 12 12 0 0 -12 13 0 0 12 12 0 0 -12 12 0 0 12 12 0 0 -12 12 0 0 12 13 0 0 -12c13,0 12,2 12,17 0,4 -3,7 -7,7l-96 0c-4,0 -7,-3 -7,-7zm61 -184c0,-2 10,-12 12,-13l0 168 -12 0 0 -155zm-24 24c0,-2 10,-11 12,-13l0 144 -12 0 0 -131zm-101 106l71 0c20,0 17,-1 17,25l-19 0c-9,0 -17,8 -17,16 0,11 -3,28 13,32 -1,14 -1,12 0,26 -7,1 -10,6 -13,11l-52 0c2,-3 11,-8 18,-21 17,-28 11,-62 -13,-84 -2,-2 -3,-2 -5,-5zm-107 51c0,17 3,31 13,44 1,2 3,4 5,5l10 10 -71 0c-9,0 -18,2 -18,-7l0 -96c0,-8 9,-7 17,-7l72 0c-2,3 -11,8 -19,21 -4,7 -9,19 -9,30zm183 -132c0,-3 10,-12 12,-13l0 83c-1,-1 -1,-1 -3,-1l-9 0 0 -69zm-24 -13c2,1 12,10 12,13l0 69 -12 0 0 -82zm-25 -12c0,-2 5,-6 6,-7 2,1 7,5 7,7l0 94 -13 0 0 -94zm-24 25c0,-3 10,-12 12,-13l0 82 -12 0 0 -69zm-24 24c0,-2 10,-11 12,-13l0 58 -12 0 0 -45zm-13 11l0 34 -33 0 33 -34zm210 -120c-5,-1 -11,-12 -18,-16l-88 88 -36 -36 -116 115c-5,5 -9,3 -22,3l137 -137 37 36 79 -79c-3,-3 -6,-6 -9,-8 -2,-3 -7,-6 -7,-9 4,0 8,-1 12,-2l39 -7 -8 52zm-70 -52l25 26 -61 61 -36 -36c-4,3 -141,140 -151,150 -2,2 -3,5 -7,5 -12,1 -38,-2 -46,2 -5,3 -10,8 -10,15l0 100c0,9 8,17 17,17l215 0 0 8c0,8 8,17 17,17l100 0c9,0 17,-9 17,-17l-1 -21c16,-3 13,-20 13,-31 0,-8 -7,-15 -13,-16l1 -21c0,-8 -8,-16 -17,-16l-20 0 0 -179c0,-3 8,-9 9,-10l26 25c1,-12 14,-79 16,-94l-47 8c-7,1 -15,2 -23,4 -4,0 -8,1 -12,2 -4,0 -9,1 -12,1z"/>
   <path class="fil0" d="M37 14l85 0 0 12 -85 0 0 -12zm-13 24l110 0 0 -36 -110 0 0 36z"/>
   <path class="fil0" d="M134 258c-11,3 -17,19 -8,29 3,3 6,4 10,6 2,1 8,4 9,5 5,8 -10,13 -11,2l-12 0c0,10 5,16 12,18l0 13 12 0 0 -13c8,-2 13,-9 13,-18 0,-9 -8,-14 -14,-17 -2,-1 -9,-3 -10,-5 -5,-7 10,-13 11,-2l13 0c0,-9 -5,-16 -13,-18l0 -13 -12 0 0 13z"/>
   <polygon class="fil0" points="24,63 134,63 134,50 24,50 "/>
   <polygon class="fil0" points="24,87 134,87 134,75 24,75 "/>
   <polygon class="fil0" points="24,136 134,136 134,123 24,123 "/>
   <polygon class="fil0" points="73,111 134,111 134,99 73,99 "/>
   <path class="fil0" d="M46 331l3 0 0 -12c-9,-2 -10,-4 -12,-13l-13 0c0,15 12,25 22,25z"/>
   <path class="fil0" d="M24 270l13 0c2,-9 3,-10 12,-12l0 -13c-14,0 -25,11 -25,25z"/>
   <polygon class="fil0" points="24,111 37,111 37,99 24,99 "/>
   <polygon class="fil0" points="49,111 61,111 61,99 49,99 "/>
  </g>
 </g>
</svg>
