<?xml version="1.0" encoding="UTF-8"?>
<!DOCTYPE svg PUBLIC "-//W3C//DTD SVG 1.1//EN" "http://www.w3.org/Graphics/SVG/1.1/DTD/svg11.dtd">
<!-- Creator: CorelDRAW X7 -->
<svg xmlns="http://www.w3.org/2000/svg" xml:space="preserve" width="10.0184mm" height="10mm" version="1.1" style="shape-rendering:geometricPrecision; text-rendering:geometricPrecision; image-rendering:optimizeQuality; fill-rule:evenodd; clip-rule:evenodd"
viewBox="0 0 363 362"
 xmlns:xlink="http://www.w3.org/1999/xlink">
 <defs>
  <style type="text/css">
   <![CDATA[
    .fil0 {fill:black}
   ]]>
  </style>
 </defs>
 <g id="Warstwa_x0020_1">
  <metadata id="CorelCorpID_0Corel-Layer"/>
  <g id="_2020439812816">
   <path class="fil0" d="M24 277l0 -6 218 0 0 6c0,26 -17,43 -43,43l-132 0c-26,0 -43,-17 -43,-43zm222 -30l92 0 0 55c0,22 -25,18 -41,18 -20,0 -41,0 -61,0 4,-6 18,-16 18,-37 0,-24 2,-24 -12,-24 1,-3 3,-8 4,-12zm-71 -6c0,-14 19,-24 31,-12 17,16 -9,42 -25,25 -3,-3 -6,-8 -6,-13zm-84 -4l9 22 -12 0c-2,-4 -5,-5 -6,-10 -4,-11 -4,-17 0,-27 1,-3 4,-10 7,-10 17,0 32,18 32,35 0,4 -2,9 -2,12l-6 0c-1,-5 -9,-20 -10,-26 -3,0 -10,3 -12,4zm-48 0l9 22 -12 0c-3,-4 -5,-5 -7,-10 -3,-10 -3,-16 0,-27 1,-2 1,-3 3,-5 1,-2 2,-3 3,-5 6,0 12,2 16,4 18,12 10,17 12,28 2,6 3,11 6,15l-8 0c-1,-3 -4,-9 -5,-13 -2,-4 -4,-9 -5,-13 -3,0 -10,3 -12,4zm120 2c0,5 0,8 2,13 1,3 3,5 3,7l-9 0c-1,-7 -20,-21 5,-62l8 -10c18,-19 32,-14 46,4 2,2 3,3 4,5 7,11 12,24 13,38 2,11 -7,23 -8,25l-9 0c2,-6 6,-4 6,-20 0,-14 -14,-28 -28,-28l-5 0c-14,0 -28,14 -28,28zm67 -96c0,-24 7,-34 16,-51l10 -16c1,-2 1,-4 3,-4l50 0c2,0 3,4 5,7 1,3 3,6 4,8 16,31 20,27 20,70l-36 0 0 12 36 0 0 66 -90 0c0,-14 -6,-29 -12,-40 -8,-13 -6,-5 -6,-26l60 0 0 -12 -60 0 0 -14zm36 -95l36 0 0 12 -36 0 0 -12zm-24 -35c0,14 -4,34 12,35l0 12c-6,1 -7,5 -9,10l-20 36c-10,20 -8,44 -8,66 -1,-1 -3,-2 -5,-4 -3,-1 -4,-2 -7,-3 0,-17 -1,-28 -11,-40 -9,-11 -19,-18 -33,-21 -10,-1 -24,0 -30,4 -9,-17 -25,-30 -46,-30 -17,0 -31,5 -42,17 -7,7 -12,17 -14,26 -1,4 -1,8 -1,12l12 0c0,-7 2,-12 4,-17l6 -10c4,-5 9,-9 15,-11 3,-2 4,-2 8,-3 18,-4 37,4 46,20 1,2 2,4 3,6 4,10 14,-2 29,-2 26,0 46,26 42,47 -8,0 -13,2 -18,5 -13,8 -27,28 -31,42 -4,-3 -8,-9 -11,-13 -6,-7 -3,-6 -1,-18 2,-8 9,-32 9,-40 -5,0 -8,-1 -12,-2 -1,7 -8,36 -10,42 -3,-2 -19,-23 -23,-27 -4,-5 -7,-9 -11,-14 -4,-5 -8,-9 -12,-14 -3,2 -5,5 -9,7 2,5 7,10 11,14 6,8 13,15 19,24l-32 0 0 12 41 0c2,0 9,9 10,11l23 28c1,1 2,1 3,3 2,3 -3,18 6,36l-13 0c1,-4 1,-10 1,-15 0,-22 -22,-45 -45,-45l-4 0c-3,0 -11,11 -12,14 -6,-1 -10,-14 -36,-14 -2,0 -2,1 -3,2 1,-12 6,-21 14,-27 2,-2 6,-5 6,-8 0,-4 -9,-12 -11,-23 -2,0 -11,3 -12,3 0,7 5,14 8,18 -4,6 -8,8 -12,17 -11,21 -3,29 -5,37 -2,10 -3,9 -3,20 0,8 4,16 6,21 -15,0 -12,4 -12,24 0,12 5,21 11,29 3,3 5,5 7,8 -6,0 -12,0 -18,0 -15,0 -12,3 -12,23 0,9 10,19 19,19l78 0 0 -12 -74 0c-11,0 -11,-10 -11,-18l338 0c0,8 1,18 -10,18l-231 0 0 12 233 0c10,0 20,-9 20,-19 0,-23 4,-23 -16,-23 1,-5 4,-9 4,-15l0 -169c0,-12 -3,-22 -8,-32l-10 -19c-1,-2 -2,-2 -3,-4 -1,-2 -1,-3 -2,-5 -4,-5 -7,-15 -13,-16l0 -12c16,-1 12,-21 12,-35 0,-14 -14,-13 -24,-13l0 12c16,0 12,-4 12,22 0,2 -1,2 -2,2l-56 0c-2,0 -2,0 -2,-2l0 -20c0,-1 0,-2 2,-2l34 0 0 -12 -36 0c-6,0 -12,6 -12,13z"/>
   <path class="fil0" d="M133 54c0,-12 15,-23 28,-14 17,11 3,39 -17,31 -6,-3 -11,-11 -11,-17zm19 -30c-10,0 -16,3 -21,8 -9,9 -10,13 -10,25 0,13 14,27 28,27l4 0c14,0 28,-14 28,-27l0 -5c0,-10 -9,-23 -17,-25 2,-10 14,-15 23,-15l0 -12c-17,0 -34,12 -35,24z"/>
   <polygon class="fil0" points="308,127 320,127 320,115 308,115 "/>
  </g>
 </g>
</svg>
