<?xml version="1.0" encoding="UTF-8"?>
<!DOCTYPE svg PUBLIC "-//W3C//DTD SVG 1.1//EN" "http://www.w3.org/Graphics/SVG/1.1/DTD/svg11.dtd">
<!-- Creator: CorelDRAW X7 -->
<svg xmlns="http://www.w3.org/2000/svg" xml:space="preserve" width="11.8166mm" height="10mm" version="1.1" style="shape-rendering:geometricPrecision; text-rendering:geometricPrecision; image-rendering:optimizeQuality; fill-rule:evenodd; clip-rule:evenodd"
viewBox="0 0 4714 3990"
 xmlns:xlink="http://www.w3.org/1999/xlink">
 <defs>
  <style type="text/css">
   <![CDATA[
    .fil0 {fill:black}
   ]]>
  </style>
 </defs>
 <g id="Warstwa_x0020_1">
  <metadata id="CorelCorpID_0Corel-Layer"/>
  <path class="fil0" d="M737 2689c0,-341 164,-556 433,-691 84,-42 64,-98 64,-239l469 0c0,254 -13,189 138,276 158,91 285,257 332,442 160,624 -488,1111 -1025,841 -62,-31 -109,-57 -156,-102l-65 -64c-100,-107 -190,-290 -190,-463zm3977 781l0 2c0,52 -71,177 -97,215l-154 159c-213,174 -543,141 -807,141 -60,0 -102,-23 -102,-83 0,-193 601,121 919,-269 29,-36 42,-63 67,-99l-4365 0c31,47 52,92 95,135 16,15 13,10 31,24 149,124 227,145 472,145l2586 2c90,18 71,145 -26,145l-2596 0c-110,0 -201,-11 -285,-38 -141,-45 -279,-145 -358,-267 -62,-95 -89,-159 -94,-202l0 -25c11,-84 141,-57 230,-57 -2,-29 -9,-33 -9,-65l0 -1740c0,-83 104,-108 139,-37 22,45 8,183 8,249l0 1556c52,35 40,38 129,37l488 0c-17,-24 -59,-46 -85,-72 -28,-26 -53,-39 -77,-70l-97 -133c-160,-247 -163,-503 -73,-776 29,-89 112,-217 178,-282 59,-59 175,-165 256,-187 0,-119 0,-239 0,-359 0,-258 -37,-239 313,-239l0 -304c0,-44 -30,-74 -74,-74l-884 0c-104,0 -74,146 -74,323 1,76 8,123 -47,147 -47,20 -100,-18 -100,-74l0 -322c0,-210 183,-221 322,-221l0 -341c0,-100 93,-193 194,-193l294 0c97,0 194,97 194,193l0 341 55 0c322,0 267,256 267,525 349,0 304,-45 304,377 24,-15 36,-31 57,-53 165,-164 366,-168 587,-168 -15,-12 -29,-25 -46,-36l-136 -113c-30,-31 -53,-50 -80,-86 -116,-155 -217,-360 -217,-593 0,-101 -17,-194 102,-194 198,0 327,16 497,102 30,15 82,48 111,55 4,-183 276,-571 377,-571 123,0 372,392 387,571 49,-13 227,-157 534,-157 101,0 175,-17 175,129 0,629 -449,853 -479,893 147,0 247,-5 361,26 319,87 459,364 459,693l0 672c0,135 -16,250 -62,344 -77,161 -125,162 -169,227 80,0 160,0 240,0 86,0 165,-17 165,72zm-2412 -1886l1621 0c119,0 255,61 331,147 75,86 138,189 138,350l0 810c0,156 -50,242 -123,337 -17,21 -25,30 -46,46 -224,174 -423,124 -798,124 -491,0 -982,0 -1473,0 13,-18 29,-27 50,-42 26,-20 32,-26 54,-48 32,-32 67,-63 95,-98 105,-135 89,-144 142,-254l1234 0c144,0 259,-17 352,-145 14,-18 37,-53 46,-74 34,-80 25,-161 25,-251 0,-175 -180,-331 -313,-331l-1252 0c-79,0 -91,98 -37,129 45,26 1072,2 1216,9 224,11 264,157 239,340 -11,83 -75,154 -160,172 -57,12 -1198,3 -1313,3 79,-342 -125,-743 -442,-911 18,-78 87,-165 148,-211 60,-44 165,-102 266,-102zm-1068 -157l469 0 0 184 -469 0 0 -184zm1878 -18c-134,-90 -267,-389 -267,-580 0,-226 39,-377 166,-553 25,-34 67,-87 101,-110 30,45 63,72 95,117 33,45 55,91 80,141 87,172 104,371 59,565 -54,233 -157,306 -234,420zm-2421 -995c0,-21 24,-46 46,-46l294 0c22,0 46,25 46,46l0 341 -386 0 0 -341zm1473 194l0 -46c127,0 212,11 322,55 40,15 70,29 108,49 36,19 68,52 104,61 0,269 44,428 178,632 20,30 36,44 52,68 -198,0 -400,-130 -532,-260 -114,-112 -232,-335 -232,-559zm1123 819c15,-21 31,-41 46,-64 60,-90 80,-114 121,-229 44,-121 63,-239 63,-407 62,-16 177,-165 534,-165 0,345 -164,601 -445,769 -65,39 -221,96 -319,96z"/>
 </g>
</svg>
