<?xml version="1.0" encoding="UTF-8"?>
<!DOCTYPE svg PUBLIC "-//W3C//DTD SVG 1.1//EN" "http://www.w3.org/Graphics/SVG/1.1/DTD/svg11.dtd">
<!-- Creator: CorelDRAW X7 -->
<svg xmlns="http://www.w3.org/2000/svg" xml:space="preserve" width="9.6754mm" height="10mm" version="1.1" style="shape-rendering:geometricPrecision; text-rendering:geometricPrecision; image-rendering:optimizeQuality; fill-rule:evenodd; clip-rule:evenodd"
viewBox="0 0 337 348"
 xmlns:xlink="http://www.w3.org/1999/xlink">
 <defs>
  <style type="text/css">
   <![CDATA[
    .fil0 {fill:black}
   ]]>
  </style>
 </defs>
 <g id="Warstwa_x0020_1">
  <metadata id="CorelCorpID_0Corel-Layer"/>
  <g id="_2020433143136">
   <path class="fil0" d="M12 298l0 -14 64 0 0 16c-9,-2 -7,-7 -18,-2 -12,5 -8,-2 -17,-2 -4,0 -9,4 -12,4 -5,0 -6,-8 -17,-2zm238 -31l5 0 0 11 12 0 0 -11 12 0 0 11 11 0 0 -11 12 0 0 11 11 0 0 -11 12 0 0 19c-6,-2 -5,-3 -12,0 -2,1 -4,3 -5,3 -6,-1 -7,-8 -18,-3 -2,1 -4,3 -6,3 -6,-1 -6,-8 -17,-3 -2,1 -4,3 -6,3 -2,-1 -6,-5 -11,-5l0 -17zm-163 -21c3,2 21,9 23,9l110 0c6,0 12,-6 18,-7l0 13 -12 0 0 11 12 0 0 12 -12 0 0 12 12 0 0 11 -12 0 0 12 12 0 0 13c-6,-1 -12,-7 -18,-7l-110 0c-2,0 -20,7 -23,8l0 -14 12 0 0 -12 -12 0 0 -11 12 0 0 -12 -12 0 0 -12 12 0 0 -11 -12 0 0 -15zm140 -89l45 0c-1,2 -1,3 -3,6 -8,12 -23,15 -34,6 -5,-5 -5,-7 -8,-12zm-12 -6c0,6 0,8 2,14 3,5 5,6 6,9 -5,-1 -11,-3 -14,-7 -8,-10 -8,-21 0,-32 6,-8 22,-12 31,3 2,3 2,5 3,7 -6,0 -11,0 -17,0 -6,0 -11,-1 -11,6zm-23 -7l0 0c0,-8 0,-16 0,-24 0,-13 27,-27 46,-27 7,0 17,2 24,5 7,3 12,7 17,12 17,17 22,43 12,64 -10,21 -30,35 -53,35 -7,0 -15,-2 -20,-4 -7,-3 -26,-14 -26,-23 -1,-8 0,-17 0,-25l0 0c0,12 15,29 29,29 11,0 12,-3 15,-3 3,0 15,6 29,-1 12,-6 19,-17 19,-31 0,-7 -5,-6 -11,-6 -6,0 -12,0 -18,0 -1,-2 -1,-6 -3,-11 -4,-9 -15,-18 -26,-18 -10,0 -17,2 -24,9 -4,4 -10,12 -10,19zm-178 -69l170 0c-1,7 -4,12 -4,20l0 148 -67 0c-2,0 -13,-4 -15,-5 -27,-11 -22,-11 -22,34l-62 0c0,-6 4,-11 4,-18l0 -159c0,-8 -4,-13 -4,-20zm-2 -25c10,5 10,-1 17,-2 2,-1 8,4 11,4 6,0 9,-4 12,-4 3,-1 8,4 11,4 6,0 9,-4 12,-4 3,-1 9,4 12,4 5,0 8,-4 12,-4 2,-1 8,4 11,4 6,0 8,-4 12,-4 2,-1 8,4 11,4 6,0 8,-4 12,-4 2,-1 8,4 11,4 6,0 8,-4 12,-4 3,-1 8,4 11,4 3,0 4,-1 7,-1l0 13 -174 0 0 -14zm307 26c0,6 1,13 1,18l3 36c0,8 1,18 1,28 -1,4 -1,4 -1,9 0,12 -1,23 -2,36 -2,23 -3,12 0,35 1,5 2,11 2,17l-73 0c0,-19 3,-31 -19,-18 -2,2 -11,6 -13,6l-26 0 0 -40c6,4 7,7 18,11 23,11 55,7 73,-10 5,-5 6,-5 12,-13 2,-3 4,-6 6,-10 12,-24 8,-57 -10,-75 -8,-9 -11,-12 -23,-18 -22,-11 -47,-8 -68,4 -4,2 -6,5 -8,7 0,-11 5,-22 5,-30l0 -23 126 0c0,5 -1,11 -2,15 0,4 -2,11 -2,15zm-156 -41l-12 0 0 -20c10,6 10,-1 17,-2 2,-1 3,1 5,2 12,6 11,-1 18,-2 3,-1 9,4 11,4 6,0 9,-3 12,-4 3,-1 9,4 12,4 5,0 8,-3 12,-4 2,-1 8,4 11,4 6,0 8,-3 12,-4 2,-1 3,1 5,2 11,6 11,-1 18,-2 2,-1 3,1 5,2 12,6 11,-1 18,-2 2,-1 3,1 5,2 8,4 7,2 13,1l0 19 -12 0 0 -12 -11 0 0 12 -12 0 0 -12 -11 0 0 12 -12 0 0 -12 -12 0 0 12 -11 0 0 -12 -12 0 0 12 -11 0 0 -12 -12 0 0 12 -12 0 0 -12 -11 0 0 12 -12 0 0 -12 -11 0 0 12zm-24 2c-2,1 -4,2 -5,3 0,0 -1,-1 -1,0l-4 -3c-8,-4 -12,-2 -19,3 0,0 0,-1 0,0l-5 -3c-7,-4 -11,-2 -18,3 0,0 0,-1 0,0l-2 -2c-1,0 -2,-1 -3,-1 -7,-4 -11,-2 -18,3 -3,-3 -8,-5 -12,-5 -3,0 -9,3 -11,5 0,0 0,-1 -1,0l-4 -3c-8,-4 -12,-2 -18,3 -4,-4 -18,-9 -18,1 0,19 -1,23 3,42 1,3 3,9 3,13l0 155c0,11 -6,19 -6,29l0 27c0,12 16,2 17,2l3 0c1,1 1,1 1,1 16,9 14,-5 23,0 16,9 15,-5 23,0 3,1 5,3 9,3 0,7 0,14 0,20 0,19 2,17 22,9 2,-1 13,-6 15,-6l105 0c2,0 10,5 13,6 23,13 19,7 19,-46 3,2 7,5 11,5 5,0 10,-4 12,-4 3,0 7,4 11,4 9,0 8,-7 16,-3 0,1 1,1 1,1 13,7 13,-6 21,-1 5,3 15,7 15,-2 0,-15 0,-32 -2,-46 -2,-12 -4,-25 -4,-37 1,-18 4,-34 4,-53 0,-15 0,-32 -1,-47l-3 -38c1,-12 6,-24 6,-36l0 -33c0,-7 -8,-6 -12,-4 -1,0 -5,2 -5,3 -5,0 -9,-8 -18,-3l-6 3c-6,-1 -8,-8 -18,-3l-5 3c-6,-1 -8,-8 -18,-3 -1,1 -2,1 -3,2 -7,3 -9,-8 -20,-2l-6 3c-5,-1 -7,-8 -17,-3 -1,1 -2,1 -3,2 -2,0 -2,1 -3,1 -5,-1 -7,-8 -17,-3 -1,1 -2,1 -3,2 -2,0 -2,1 -3,1 -5,-1 -8,-8 -18,-3 -1,1 -1,1 -2,2 -6,2 -8,-4 -15,-4 -7,0 -6,8 -6,15 0,7 0,15 0,22z"/>
   <path class="fil0" d="M99 209c-5,0 -12,-2 -16,-4 -3,-1 -9,-4 -11,-7 15,-1 39,-1 54,-1 -4,7 -19,12 -27,12zm-58 -13c0,-9 -1,-36 1,-42 2,-5 6,-9 13,-9 15,-1 49,0 65,0 8,0 14,0 20,-1 10,-2 12,-5 17,-6 0,58 10,46 -84,47 -12,1 -22,6 -32,11zm58 -68c3,0 8,0 11,1 2,1 7,2 8,4l-39 0c3,-3 15,-5 20,-5zm-70 29l0 52c0,3 4,9 12,3 3,-3 13,-11 17,-11 2,0 1,2 7,7 18,14 41,17 61,5 7,-5 12,-9 16,-16 16,0 26,-10 26,-23l0 -46c0,-4 -2,-6 -5,-6 -4,0 -9,4 -12,6 -15,7 -14,4 -21,-2 -18,-14 -45,-14 -63,1 -1,0 -7,6 -8,6 -4,2 -10,-2 -21,6 -4,3 -9,10 -9,18z"/>
   <path class="fil0" d="M145 290c0,-14 18,-24 30,-12 7,6 7,17 0,24 -12,12 -30,2 -30,-12zm-11 -2l0 4c0,13 13,27 26,27l5 0c13,0 27,-14 27,-27l0 -4c0,-14 -14,-27 -27,-27l-5 0c-13,0 -26,13 -26,27z"/>
  </g>
 </g>
</svg>
