<?xml version="1.0" encoding="UTF-8"?>
<!DOCTYPE svg PUBLIC "-//W3C//DTD SVG 1.1//EN" "http://www.w3.org/Graphics/SVG/1.1/DTD/svg11.dtd">
<!-- Creator: CorelDRAW X7 -->
<svg xmlns="http://www.w3.org/2000/svg" xml:space="preserve" width="10.0002mm" height="10mm" version="1.1" style="shape-rendering:geometricPrecision; text-rendering:geometricPrecision; image-rendering:optimizeQuality; fill-rule:evenodd; clip-rule:evenodd"
viewBox="0 0 378 378"
 xmlns:xlink="http://www.w3.org/1999/xlink">
 <defs>
  <style type="text/css">
   <![CDATA[
    .fil0 {fill:black}
   ]]>
  </style>
 </defs>
 <g id="Warstwa_x0020_1">
  <metadata id="CorelCorpID_0Corel-Layer"/>
  <g id="_2020436095376">
   <path class="fil0" d="M278 361l0 -121 8 0c8,0 16,9 16,17l0 103c0,9 -20,5 -21,5 -2,-1 -3,-3 -3,-4zm100 -78l0 5c0,20 -1,21 -25,21 0,11 2,19 -5,26 -8,8 -22,6 -32,5 0,12 2,23 -5,31 -4,5 -8,7 -13,7l-16 0c-9,0 -17,-9 -17,-19l0 -50 -151 0 0 50c0,10 -8,19 -18,19l-15 0c-6,0 -10,-2 -14,-7 -1,-2 -2,-3 -3,-4 -2,-7 -1,-18 -1,-27 -11,1 -24,3 -32,-5 -8,-7 -6,-15 -6,-26 -9,0 -25,2 -25,-12 0,-25 0,-26 25,-26l0 -14c0,-9 10,-18 19,-18l19 1c0,-8 -1,-20 1,-26 6,-15 19,-12 32,-12 9,0 18,9 18,19l0 50 151 0 0 -50c0,-10 8,-19 17,-19 13,0 26,-3 32,12 3,6 2,18 2,26l18 -1c10,0 19,9 19,18l0 14c9,0 25,-2 25,12zm-302 77l0 -120 8 0c8,0 17,9 17,17l0 104c0,6 -13,5 -17,5 -4,0 -8,-2 -8,-6zm240 -39l0 -43 7 0c8,0 17,8 17,16l0 28c0,7 -8,5 -20,5 -2,0 -4,-3 -4,-6zm-258 6c-12,0 -20,2 -20,-5l0 -44c8,0 14,-1 20,6 7,8 5,23 5,37 0,3 -2,6 -5,6zm295 -43l13 0 0 12 -13 0 0 -12zm-239 0l151 0 0 12 -151 0 0 -12zm-101 0l12 0 0 12 -12 0 0 -12zm303 -25c0,-8 9,-6 19,-6 7,0 5,12 5,17 -11,-5 -11,-5 -24,-5l0 -6zm-278 -1c0,-7 9,-5 19,-5 8,0 6,9 6,17 -7,-1 -4,-5 -25,-5l0 -7zm240 -39c0,-6 12,-5 16,-5 11,0 8,8 8,19 -9,-6 -14,-6 -24,-6l0 -8zm-202 0c0,-6 12,-5 16,-5 5,0 8,2 8,6 1,2 1,10 1,13 -12,-7 -11,-6 -25,-6l0 -8z"/>
   <path class="fil0" d="M51 79c0,-14 0,-19 7,-32 1,-4 3,-6 5,-10 8,-11 23,-20 37,-23 3,-1 12,-2 14,-1 12,1 14,1 25,6 3,1 7,4 9,5 6,5 24,24 31,30 7,7 13,8 20,1l23 -23c18,-18 43,-24 67,-15 21,9 38,32 38,53 0,16 0,24 -8,37 -9,14 -42,44 -55,58l-65 65c-1,2 -3,3 -4,5 -7,8 -5,6 -25,-14 -6,-6 -12,-12 -19,-18l-74 -75c-7,-7 -7,-7 -13,-15 -7,-8 -13,-21 -13,-34zm56 -79l9 0c8,1 17,2 25,6 24,9 37,33 48,40 6,-4 22,-23 31,-30 12,-10 26,-15 41,-16l10 0c17,1 34,9 48,22 6,6 8,9 12,16 1,2 2,3 3,6 14,34 7,63 -19,89l-113 113c-9,9 -17,9 -26,0l-51 -51c-4,-4 -7,-8 -10,-11l-51 -51c-17,-17 -26,-34 -26,-60 0,-12 3,-21 6,-29 2,-3 2,-4 4,-7 3,-6 6,-10 11,-15 14,-13 31,-21 48,-22z"/>
   <path class="fil0" d="M154 120l-29 0c-7,1 -9,13 5,13 29,0 31,3 37,-13 1,-3 2,-6 4,-7l10 27c3,6 14,9 18,-5l5 -15 2 4c3,6 5,9 15,9l27 0c15,0 12,-13 5,-13l-35 0c-1,-3 -4,-9 -6,-12 -6,-12 -16,-10 -19,1l-3 11c-2,4 0,2 -2,3 -1,-3 -5,-13 -6,-17 -3,-8 -4,-12 -13,-12 -6,0 -8,7 -10,11 -1,3 -5,12 -5,15z"/>
  </g>
 </g>
</svg>
