<?xml version="1.0" encoding="UTF-8"?>
<!DOCTYPE svg PUBLIC "-//W3C//DTD SVG 1.1//EN" "http://www.w3.org/Graphics/SVG/1.1/DTD/svg11.dtd">
<!-- Creator: CorelDRAW X7 -->
<svg xmlns="http://www.w3.org/2000/svg" xml:space="preserve" width="12.7654mm" height="10mm" version="1.1" style="shape-rendering:geometricPrecision; text-rendering:geometricPrecision; image-rendering:optimizeQuality; fill-rule:evenodd; clip-rule:evenodd"
viewBox="0 0 25882 20275"
 xmlns:xlink="http://www.w3.org/1999/xlink">
 <defs>
  <style type="text/css">
   <![CDATA[
    .fil0 {fill:black}
   ]]>
  </style>
 </defs>
 <g id="Warstwa_x0020_1">
  <metadata id="CorelCorpID_0Corel-Layer"/>
  <g id="_2020435667920">
   <path class="fil0" d="M14638 16882c-482,0 -1013,94 -1013,-152l0 -6078c0,-248 515,-152 1013,-152 127,545 51,5185 51,6129 0,64 -33,213 -51,253zm810 -1064l0 -4254c0,-238 312,-152 912,-152 117,0 152,35 152,152l0 4254c0,238 -312,152 -912,152 -117,0 -152,-35 -152,-152zm-13827 152c-600,0 -912,86 -912,-152l0 -4254c0,-238 312,-152 912,-152 392,0 -167,962 557,962 519,0 414,-794 403,-1420 -8,-538 -113,-454 863,-454 117,0 152,35 152,152l0 6078c0,234 -285,152 -861,152 -242,0 -152,-409 -152,-861 0,-338 0,-675 0,-1013 0,-827 207,-1621 -506,-1621 -682,0 -2,2583 -456,2583zm1924 -9877c0,2101 705,3758 1713,5430 127,210 255,392 364,598l-1216 0c0,-545 134,-1653 -215,-2064 -401,-472 -1090,-317 -1659,-317 -227,0 -397,162 -521,289 -167,171 -238,303 -238,623 -556,-129 -1773,-136 -1773,658l0 4762c0,703 1300,885 1773,658 0,395 142,560 367,747 368,305 1531,305 1899,0 537,-445 367,-1233 367,-2216l3749 0c167,0 614,539 746,672l1115 1013c353,359 781,692 1178,1000l1620 1266c1409,1060 1732,1463 3009,578l3642 -2893c101,-85 123,-83 226,-179 1294,-1197 2701,-2606 3709,-4040 108,-153 207,-283 315,-445 1042,-1557 2167,-3598 2167,-5582 0,-1128 -119,-2116 -607,-3090 -98,-196 -229,-557 -507,-557 -680,0 -303,705 -151,1012 878,1779 414,3889 -276,5551 -614,1480 -1824,3122 -2928,4315l-1545 1595c-1200,1214 -3271,2827 -4613,3744 -678,464 -705,304 -1905,-595 -787,-590 -1586,-1180 -2320,-1833 -304,-272 -1480,-1264 -1660,-1532l3444 0c0,1425 -325,2431 1368,2431 677,0 1266,-196 1266,-962 404,194 1824,145 1824,-811l0 -4457c0,-914 -1150,-967 -1824,-810 0,-284 -76,-456 -200,-610 -370,-456 -1154,-302 -1674,-302 -996,0 -760,1739 -760,2381 -483,0 -1570,-166 -1570,354 0,582 878,406 1570,406l0 1570 -8408 0 0 -1570 5521 0c493,0 685,-768 -200,-762l-3143 2c-266,-504 -648,-949 -928,-1453 -304,-548 -518,-1003 -765,-1615 -435,-1079 -762,-2652 -425,-4014 765,-3092 3876,-4926 6899,-4029 695,206 1243,526 1797,937 202,149 299,260 476,436 281,282 590,773 1051,773 648,0 899,-794 2085,-1561 311,-201 869,-460 1257,-567 1296,-359 2680,-324 3851,253 466,230 925,469 1303,824 121,114 293,291 468,291 498,0 657,-491 -304,-1165 -2653,-1862 -5911,-1598 -8217,697 -152,150 -263,398 -494,417 -83,-309 -1003,-1038 -1287,-1245 -160,-116 -370,-239 -536,-325 -1104,-574 -1909,-759 -3293,-759 -855,0 -1812,295 -2398,590 -2063,1040 -3579,3044 -3579,5487z"/>
   <path class="fil0" d="M10991 8626c-20,-237 -162,-589 -232,-832l-496 -1631c-94,-286 -129,-576 -488,-576l-3697 0c-460,0 -728,818 251,813l3193 -2 1125 3737c156,423 624,412 779,-10 190,-520 1067,-3870 1287,-4032 27,323 177,1064 659,1064l3494 0c496,0 762,-811 -149,-813l-3143 3 -325 -1144c-123,-433 -214,-933 -536,-933 -451,0 -498,530 -614,906 -106,344 -922,3314 -1108,3450z"/>
  </g>
 </g>
</svg>
