<?xml version="1.0" encoding="UTF-8"?>
<!DOCTYPE svg PUBLIC "-//W3C//DTD SVG 1.1//EN" "http://www.w3.org/Graphics/SVG/1.1/DTD/svg11.dtd">
<!-- Creator: CorelDRAW X7 -->
<svg xmlns="http://www.w3.org/2000/svg" xml:space="preserve" width="10.5127mm" height="6.1355mm" version="1.1" style="shape-rendering:geometricPrecision; text-rendering:geometricPrecision; image-rendering:optimizeQuality; fill-rule:evenodd; clip-rule:evenodd"
viewBox="0 0 1924 1123"
 xmlns:xlink="http://www.w3.org/1999/xlink">
 <defs>
  <style type="text/css">
   <![CDATA[
    .fil2 {fill:#015BBB}
    .fil4 {fill:#D2D2D2}
    .fil0 {fill:#E52031}
    .fil3 {fill:#FED500}
    .fil1 {fill:#FEFEFE}
   ]]>
  </style>
 </defs>
 <g id="Warstwa_x0020_1">
  <metadata id="CorelCorpID_0Corel-Layer"/>
  <g id="_2402818170656">
   <path class="fil0" d="M952 1113c21,-25 72,-73 101,-102 3,-3 5,-5 7,-8 3,-3 6,-4 8,-7 22,-27 17,-64 -16,-74 -32,-11 -52,17 -74,39 -39,40 -78,78 -118,117 -8,8 -18,20 -36,22 -26,2 -46,-14 -52,-35 -4,-11 2,-15 14,-27l23 -22c39,-39 78,-77 117,-117 17,-17 51,-43 32,-75 -7,-11 -18,-22 -35,-24 -21,-1 -32,10 -41,19 -11,9 -20,19 -30,29l-89 87c-5,5 -9,10 -14,15l-43 46c-27,30 -85,21 -101,-7 -4,-8 5,-14 9,-17l29 -30c20,-19 39,-39 59,-59 39,-39 78,-77 117,-117 45,-46 -16,-101 -56,-67 -12,10 -20,18 -30,28l-176 177c-8,8 -20,22 -31,27 -23,10 -86,-16 -28,-95l27 -32c9,-11 7,-8 14,-15 5,-5 10,-11 15,-15 77,-70 160,-135 240,-201 8,-6 12,-11 19,-11l297 0c13,0 61,32 141,7 36,-11 19,-7 61,-7 46,0 93,0 139,0 3,18 33,110 42,136 9,29 8,19 -34,64 -28,32 -80,72 -114,100 -14,11 -27,21 -40,32 -54,42 -107,83 -162,124 -14,11 -28,20 -41,31 -27,20 -58,42 -89,54 -15,6 -43,11 -61,10z"/>
   <path class="fil1" d="M1543 560c-32,-117 -84,-298 -97,-423 -3,-37 20,-49 44,-61 43,-22 112,-35 166,-43 62,-9 125,-15 188,-21 13,-1 36,-5 47,0 8,3 24,18 24,27 1,34 0,71 0,105 0,138 0,277 0,416l-372 0z"/>
   <path class="fil2" d="M440 482l-430 0c0,-121 0,-243 -1,-364 0,-13 9,-20 20,-25 21,-9 105,-2 128,-1 102,7 215,24 311,53 21,7 49,15 67,24 31,14 27,30 12,57 -21,37 -73,169 -94,224 -4,9 -9,22 -13,32z"/>
   <path class="fil3" d="M10 482l430 0c-5,18 -31,83 -41,111 -12,38 -26,75 -38,114 -12,39 -23,78 -35,117 -18,58 -33,51 -101,51 -51,0 -101,0 -151,0 -29,0 -45,2 -60,-16 -7,-9 -4,-21 -4,-34l0 -343z"/>
   <path class="fil2" d="M746 482l-221 0c16,-41 56,-152 77,-182 16,-22 61,-33 86,-42 32,-12 62,-23 94,-36 81,-32 165,-76 248,-19 48,32 51,34 92,70 44,39 107,120 115,175 1,11 -1,20 -7,25 -5,4 -15,8 -23,9 -15,0 -52,2 -63,-3 -31,-13 -48,-37 -66,-63 -12,-17 -20,-15 -44,-19 -18,-4 -33,-10 -48,-17 -31,-12 -62,-34 -99,-16 -14,7 -57,46 -71,58l-70 60z"/>
   <path class="fil0" d="M1915 720c0,41 7,52 -12,67 -19,14 -39,9 -69,9 -29,0 -193,2 -207,-3 -15,-4 -20,-14 -25,-28l-34 -121c-8,-26 -19,-57 -24,-82 122,0 243,0 371,0l0 158z"/>
   <path class="fil4" d="M952 1113c18,1 46,-4 61,-10 31,-12 62,-34 89,-54 13,-11 27,-20 41,-31 55,-41 108,-82 162,-124 13,-11 26,-21 40,-32 34,-28 86,-68 114,-100 42,-45 43,-35 34,-64 -9,-26 -39,-118 -42,-136 -46,0 -93,0 -139,0 -42,0 -25,-4 -61,7 -80,25 -128,-7 -141,-7l-297 0c-7,0 -11,5 -19,11 -80,66 -163,131 -240,201 -5,4 -10,10 -15,15 -7,7 -5,4 -14,15l-27 32c-58,79 5,105 28,95 11,-5 23,-19 31,-27l176 -177c10,-10 18,-18 30,-28 40,-34 101,21 56,67 -39,40 -78,78 -117,117 -20,20 -39,40 -59,59l-29 30c-4,3 -13,9 -9,17 16,28 74,37 101,7l43 -46c5,-5 9,-10 14,-15l89 -87c10,-10 19,-20 30,-29 9,-9 20,-20 41,-19 17,2 28,13 35,24 19,32 -15,58 -32,75 -39,40 -78,78 -117,117l-23 22c-12,12 -18,16 -14,27 6,21 26,37 52,35 18,-2 28,-14 36,-22 40,-39 79,-77 118,-117 22,-22 42,-50 74,-39 33,10 38,47 16,74 -2,3 -5,4 -8,7 -2,3 -4,5 -7,8 -29,29 -80,77 -101,102zm160 -553c-14,-5 -43,-27 -56,-39 -22,-21 -21,-31 -57,-38 -46,-8 -48,-34 -68,-21l-17 14c-6,5 -12,10 -18,14l-69 57c-3,2 -15,12 -17,13l302 0zm338 0c-24,-76 -55,-210 -72,-294 -3,-12 0,-18 -14,-18 -22,0 -118,-1 -133,0 3,6 8,11 13,17 11,15 28,36 38,51 36,57 84,159 28,220 -6,8 -22,19 -34,24l174 0zm-519 563c2,-4 5,-7 8,-10 4,-4 6,-7 9,-11 3,-3 7,-6 10,-9 4,-3 6,-6 10,-10 3,-3 5,-6 9,-10 3,-3 6,-6 10,-9 6,-7 13,-13 19,-20l39 -39c10,-9 32,-27 27,-50 -5,-24 -31,-31 -49,-22 -9,5 -32,28 -41,36 -26,27 -51,52 -78,78l-38 39c-11,11 -27,26 -53,23 -23,-2 -38,-16 -46,-32 -5,-9 -9,-20 -2,-30 2,-4 6,-8 9,-10 23,-20 64,-64 88,-88 27,-26 53,-51 78,-78 6,-6 12,-13 13,-25 2,-22 -28,-57 -65,-21l-59 58c-7,8 -12,13 -19,20 -14,13 -26,25 -39,38l-48 50c-10,10 -15,19 -32,27 -19,9 -44,9 -64,0 -12,-5 -40,-23 -31,-41 4,-8 31,-32 39,-39 26,-26 52,-52 78,-78 26,-26 51,-53 78,-79 8,-8 31,-27 34,-43 4,-22 -15,-41 -37,-40 -17,1 -36,24 -44,32 -13,13 -26,26 -39,39 -26,26 -52,51 -78,78l-29 29c-3,3 -7,6 -10,10 -13,13 -26,26 -39,39 -14,13 -27,25 -54,13 -17,-7 -31,-23 -30,-47 1,-30 21,-55 38,-77l47 -50 31 -27c17,-16 46,-39 64,-54 32,-28 74,-60 107,-88l171 -139c28,-22 29,10 85,19 27,5 34,18 47,31 21,22 55,49 98,59 42,10 96,0 129,-19 61,-34 50,-107 23,-168 -6,-15 -18,-37 -27,-50 -23,-34 -35,-48 -58,-78 -3,-4 -6,-7 -9,-12 14,0 157,-1 164,2 11,4 12,26 15,39 29,133 62,263 103,391 4,12 11,29 14,42 2,9 -1,14 -6,20 -5,5 -9,9 -13,14l-55 55c-81,69 -220,178 -307,242l-48 35c-46,34 -84,47 -147,45z"/>
   <path class="fil1" d="M1450 560l-174 0c12,-5 28,-16 34,-24 56,-61 8,-163 -28,-220 -10,-15 -27,-36 -38,-51 -5,-6 -10,-11 -13,-17 15,-1 111,0 133,0 14,0 11,6 14,18 17,84 48,218 72,294z"/>
   <path class="fil3" d="M525 482l221 0c-9,10 -89,74 -105,87l-105 89c-6,6 -13,12 -20,18l-96 99 52 -148c18,-48 35,-98 53,-145z"/>
   <path class="fil4" d="M10 482l0 343c0,13 -3,25 4,34 15,18 31,16 60,16 50,0 100,0 151,0 68,0 83,7 101,-51 12,-39 23,-78 35,-117 12,-39 26,-76 38,-114 10,-28 36,-93 41,-111 4,-10 9,-23 13,-32 21,-55 73,-187 94,-224 15,-27 19,-43 -12,-57 -18,-9 -46,-17 -67,-24 -96,-29 -209,-46 -311,-53 -23,-1 -107,-8 -128,1 -11,5 -20,12 -20,25 1,121 1,243 1,364zm82 -402c147,3 303,26 439,77 50,19 40,45 22,76 -20,35 -95,228 -112,274 -40,107 -74,212 -107,323 -8,25 -15,41 -36,50 -20,8 -136,4 -167,4 -34,0 -93,7 -116,-12 -8,-6 -15,-12 -15,-28 1,-57 0,-114 0,-172l0 -557c0,-13 8,-20 17,-26 19,-13 50,-10 75,-9z"/>
   <path class="fil4" d="M525 482c-18,47 -35,97 -53,145l-52 148 96 -99c7,-6 14,-12 20,-18l105 -89c16,-13 96,-77 105,-87l70 -60c14,-12 57,-51 71,-58 37,-18 68,4 99,16 15,7 30,13 48,17 24,4 32,2 44,19 18,26 35,50 66,63 11,5 48,3 63,3 8,-1 18,-5 23,-9 6,-5 8,-14 7,-25 -8,-55 -71,-136 -115,-175 -41,-36 -44,-38 -92,-70 -83,-57 -167,-13 -248,19 -32,13 -62,24 -94,36 -25,9 -70,20 -86,42 -21,30 -61,141 -77,182zm437 -315c39,5 73,25 102,47 9,7 19,14 28,21l27 23c27,25 50,47 72,78 13,19 73,102 51,137 -11,17 -48,26 -76,22 -20,-3 -37,-11 -52,-23 -2,-2 -4,-3 -6,-5 -10,-9 -22,-23 -29,-34 -6,-8 -13,-21 -25,-24 -41,-8 -35,-4 -77,-22 -23,-10 -47,-26 -77,-17 -17,5 -41,28 -57,42l-79 68c-9,8 -19,15 -28,23 -57,48 -179,145 -221,187 -15,15 -25,23 -44,44l-36 38c-3,4 -8,11 -12,13 -7,5 -13,2 -13,-6 -1,-10 93,-265 97,-275 12,-34 68,-187 88,-210l12 -12c20,-14 27,-15 51,-24 49,-17 96,-35 144,-54 48,-18 100,-44 160,-37z"/>
   <path class="fil4" d="M1915 562c-128,0 -249,0 -371,0 5,25 16,56 24,82l34 121c5,14 10,24 25,28 14,5 178,3 207,3 30,0 50,5 69,-9 19,-15 12,-26 12,-67l0 -158zm-372 -2l372 0c0,-139 0,-278 0,-416 0,-34 1,-71 0,-105 0,-9 -16,-24 -24,-27 -11,-5 -34,-1 -47,0 -63,6 -126,12 -188,21 -54,8 -123,21 -166,43 -24,12 -47,24 -44,61 13,125 65,306 97,423zm344 -560c15,3 24,15 33,27 5,6 4,8 4,17 -1,188 0,378 0,566 0,54 0,107 0,161 0,9 -1,9 -5,14 -3,3 -7,7 -11,9 -8,6 -17,11 -30,11l-242 0c-26,-2 -36,-17 -43,-38l-54 -188c-12,-42 -25,-84 -36,-127 -22,-87 -44,-170 -59,-264 -10,-64 -18,-86 31,-115 74,-42 246,-60 337,-67 16,-1 63,-8 75,-6z"/>
   <path class="fil1" d="M1112 560l-302 0c2,-1 14,-11 17,-13l69 -57c6,-4 12,-9 18,-14l17 -14c20,-13 22,13 68,21 36,7 35,17 57,38 13,12 42,34 56,39z"/>
  </g>
 </g>
</svg>
